<?xml version="1.0" encoding="UTF-8" standalone="no"?>
<!-- Created with Inkscape (http://www.inkscape.org/) -->

<svg
   version="1.1"
   id="svg1"
   width="290.11914"
   height="285.27621"
   viewBox="0 0 290.11914 285.27621"
   xmlns="http://www.w3.org/2000/svg"
   xmlns:svg="http://www.w3.org/2000/svg">
  <defs
     id="defs1" />
  <g
     id="g1"
     transform="translate(-0.26367007,-4.2734379)">
    <path
       id="path1"
       d="m -102.04825,0 h 204.0965"
       style="fill:none;stroke:#000000;stroke-width:0.3985;stroke-linecap:butt;stroke-linejoin:miter;stroke-miterlimit:10;stroke-dasharray:none;stroke-opacity:1"
       transform="matrix(1.3333333,0,0,-1.3333333,136.328,153.48533)" />
    <path
       id="path2"
       d="m 3.3295781,-3.0108906 c 0.058594,-0.2578125 0.2929688,-1.171875 0.984375,-1.171875 0.046875,0 0.2929688,0 0.5039063,0.1289062 -0.28125,0.046875 -0.4804688,0.3046875 -0.4804688,0.5390625 0,0.1640625 0.1054688,0.3515625 0.375,0.3515625 0.2226563,0 0.5390625,-0.1875 0.5390625,-0.5859375 0,-0.515625 -0.5859375,-0.65625 -0.9257812,-0.65625 -0.5742188,0 -0.9257813,0.5273438 -1.0429688,0.7617188 -0.2578125,-0.65625 -0.7851562,-0.7617188 -1.078125,-0.7617188 -1.0429687,0 -1.60546872,1.2890625 -1.60546872,1.5351563 0,0.1054687 0.10546875,0.1054687 0.1171875,0.1054687 0.0820313,0 0.1171875,-0.023437 0.12890625,-0.1171875 0.33984377,-1.0546875 0.99609377,-1.3007812 1.33593747,-1.3007812 0.1875,0 0.5390625,0.09375 0.5390625,0.6679687 0,0.3046875 -0.1640625,0.9726563 -0.5390625,2.3671875 -0.1523437,0.62109377 -0.5039062,1.04296877 -0.9492187,1.04296877 -0.058594,0 -0.28125002,0 -0.49218752,-0.12890625 0.24609375,-0.0585938 0.46875002,-0.26953125 0.46875002,-0.5390625 0,-0.26953122 -0.22265627,-0.35156252 -0.37500002,-0.35156252 -0.29296875,0 -0.5390625,0.25781252 -0.5390625,0.57421877 0,0.45703125 0.4921875,0.65625 0.93750002,0.65625 0.65625,0 1.0078125,-0.69140625 1.0429687,-0.75 0.1171875,0.36328125 0.4804688,0.75 1.078125,0.75 1.0195313,0 1.59375,-1.27734377 1.59375,-1.53515627 0,-0.09375 -0.09375,-0.09375 -0.1289062,-0.09375 -0.082031,0 -0.1054688,0.035156 -0.1289063,0.1054688 -0.328125,1.06640622 -0.9960937,1.31249997 -1.3242187,1.31249997 -0.3867188,0 -0.5390625,-0.328125 -0.5390625,-0.65625 0,-0.22265625 0.058594,-0.44531247 0.1640625,-0.87890627 z m 0,0"
       style="fill:#000000;fill-opacity:1;fill-rule:nonzero;stroke:none"
       aria-label="x"
       transform="matrix(1.3333333,0,0,1.3333333,277.084,163.89733)" />
    <path
       id="path3"
       d="m 0,-102.04825 v 204.0965"
       style="fill:none;stroke:#000000;stroke-width:0.3985;stroke-linecap:butt;stroke-linejoin:miter;stroke-miterlimit:10;stroke-dasharray:none;stroke-opacity:1"
       transform="matrix(1.3333333,0,0,-1.3333333,136.328,153.48533)" />
    <path
       id="path4"
       d="m 4.8392422,-3.7955469 c 0.046875,-0.140625 0.046875,-0.1523437 0.046875,-0.2226562 0,-0.1875 -0.140625,-0.2695313 -0.2929688,-0.2695313 -0.1054687,0 -0.2578125,0.058594 -0.3515625,0.1992188 -0.023437,0.058594 -0.09375,0.3632812 -0.140625,0.5390625 -0.070312,0.2578125 -0.140625,0.5273437 -0.1992187,0.796875 l -0.4453125,1.79296873 c -0.035156,0.15234375 -0.46875,0.85546875 -1.125,0.85546875 -0.5039063,0 -0.6210938,-0.4453125 -0.6210938,-0.80859375 0,-0.45703123 0.1757813,-1.07812503 0.515625,-1.95703123 0.1523438,-0.4101563 0.1992188,-0.515625 0.1992188,-0.7148438 0,-0.4453125 -0.328125,-0.8203125 -0.8203125,-0.8203125 -0.94921876,0 -1.31250001,1.453125 -1.31250001,1.5351563 0,0.1054687 0.09375,0.1054687 0.1171875,0.1054687 0.09375,0 0.10546875,-0.023437 0.15234375,-0.1875 0.26953125,-0.9375 0.66796876,-1.2304687 1.00781246,-1.2304687 0.082031,0 0.2578125,0 0.2578125,0.3164062 0,0.2460938 -0.1054687,0.515625 -0.1757812,0.703125 -0.3984375,1.0546875 -0.5742188,1.6171875 -0.5742188,2.0859375 0,0.89062503 0.6210938,1.18359378 1.21875,1.18359378 0.3867188,0 0.7265625,-0.1640625 0.9960938,-0.4453125 -0.1289063,0.515625 -0.2460938,1.0078125 -0.6445313,1.53515622 -0.2578125,0.3398438 -0.6328125,0.6328125 -1.0898437,0.6328125 -0.140625,0 -0.59765626,-0.035156 -0.76171876,-0.421875 0.1640625,0 0.29296876,0 0.43359376,-0.1171875 0.09375,-0.09375 0.1992187,-0.2226562 0.1992187,-0.41015622 0,-0.31640625 -0.2695312,-0.3515625 -0.375,-0.3515625 -0.22265621,0 -0.55078121,0.1640625 -0.55078121,0.64453122 0,0.5039063 0.43359375,0.8671875 1.05468751,0.8671875 1.0195312,0 2.0507812,-0.9023437 2.3320312,-2.02734372 z m 0,0"
       style="fill:#000000;fill-opacity:1;fill-rule:nonzero;stroke:none"
       aria-label="y"
       transform="matrix(1.3333333,0,0,1.3333333,124.64533,10.146667)" />
    <path
       id="path5"
       d="M 85.04042,0 C 85.04042,46.96713 46.96713,85.04042 0,85.04042 -46.96713,85.04042 -85.04042,46.96713 -85.04042,0 c 0,-46.96713 38.07329,-85.04042 85.04042,-85.04042 46.96713,0 85.04042,38.07329 85.04042,85.04042 z"
       style="fill:none;stroke:#000000;stroke-width:0.3985;stroke-linecap:butt;stroke-linejoin:miter;stroke-miterlimit:10;stroke-dasharray:none;stroke-opacity:1"
       transform="matrix(1.3333333,0,0,-1.3333333,136.328,153.48533)" />
    <path
       id="path6"
       d="M 0,0 H 85.04042"
       style="fill:none;stroke:#bfbfbf;stroke-width:0.3985;stroke-linecap:butt;stroke-linejoin:miter;stroke-miterlimit:10;stroke-dasharray:none;stroke-opacity:1"
       transform="matrix(1.3333333,0,0,-1.3333333,136.328,153.48533)" />
    <path
       id="path7"
       d="m 86.31598,0 c 0,0.70447 -0.57108,1.27554 -1.27556,1.27554 -0.70447,0 -1.27556,-0.57107 -1.27556,-1.27554 0,-0.70447 0.57109,-1.27554 1.27556,-1.27554 0.70448,0 1.27556,0.57107 1.27556,1.27554 z"
       style="fill:#000000;fill-opacity:1;fill-rule:nonzero;stroke:none"
       transform="matrix(1.3333333,0,0,-1.3333333,136.328,153.48533)" />
    <path
       id="path8"
       d="M 0,0 73.64732,42.52019"
       style="fill:none;stroke:#bfbfbf;stroke-width:0.3985;stroke-linecap:butt;stroke-linejoin:miter;stroke-miterlimit:10;stroke-dasharray:none;stroke-opacity:1"
       transform="matrix(1.3333333,0,0,-1.3333333,136.328,153.48533)" />
    <path
       id="path9"
       d="m 74.92288,42.52019 c 0,0.70447 -0.57108,1.27554 -1.27556,1.27554 -0.70446,0 -1.27554,-0.57107 -1.27554,-1.27554 0,-0.70449 0.57108,-1.27556 1.27554,-1.27556 0.70448,0 1.27556,0.57107 1.27556,1.27556 z"
       style="fill:#000000;fill-opacity:1;fill-rule:nonzero;stroke:none"
       transform="matrix(1.3333333,0,0,-1.3333333,136.328,153.48533)" />
    <path
       id="path10"
       d="M 0,0 60.13269,60.13269"
       style="fill:none;stroke:#bfbfbf;stroke-width:0.3985;stroke-linecap:butt;stroke-linejoin:miter;stroke-miterlimit:10;stroke-dasharray:none;stroke-opacity:1"
       transform="matrix(1.3333333,0,0,-1.3333333,136.328,153.48533)" />
    <path
       id="path11"
       d="m 61.40825,60.13269 c 0,0.70448 -0.57108,1.27556 -1.27556,1.27556 -0.70447,0 -1.27554,-0.57108 -1.27554,-1.27556 0,-0.70447 0.57107,-1.27554 1.27554,-1.27554 0.70448,0 1.27556,0.57107 1.27556,1.27554 z"
       style="fill:#000000;fill-opacity:1;fill-rule:nonzero;stroke:none"
       transform="matrix(1.3333333,0,0,-1.3333333,136.328,153.48533)" />
    <path
       id="path12"
       d="M 0,0 42.52019,73.64732"
       style="fill:none;stroke:#bfbfbf;stroke-width:0.3985;stroke-linecap:butt;stroke-linejoin:miter;stroke-miterlimit:10;stroke-dasharray:none;stroke-opacity:1"
       transform="matrix(1.3333333,0,0,-1.3333333,136.328,153.48533)" />
    <path
       id="path13"
       d="m 43.79573,73.64732 c 0,0.70448 -0.57107,1.27556 -1.27554,1.27556 -0.70449,0 -1.27556,-0.57108 -1.27556,-1.27556 0,-0.70446 0.57107,-1.27554 1.27556,-1.27554 0.70447,0 1.27554,0.57108 1.27554,1.27554 z"
       style="fill:#000000;fill-opacity:1;fill-rule:nonzero;stroke:none"
       transform="matrix(1.3333333,0,0,-1.3333333,136.328,153.48533)" />
    <path
       id="path14"
       d="M 0,0 V 85.04042"
       style="fill:none;stroke:#bfbfbf;stroke-width:0.3985;stroke-linecap:butt;stroke-linejoin:miter;stroke-miterlimit:10;stroke-dasharray:none;stroke-opacity:1"
       transform="matrix(1.3333333,0,0,-1.3333333,136.328,153.48533)" />
    <path
       id="path15"
       d="m 1.27554,85.04042 c 0,0.70448 -0.57107,1.27556 -1.27554,1.27556 -0.70447,0 -1.27554,-0.57108 -1.27554,-1.27556 0,-0.70447 0.57107,-1.27556 1.27554,-1.27556 0.70447,0 1.27554,0.57109 1.27554,1.27556 z"
       style="fill:#000000;fill-opacity:1;fill-rule:nonzero;stroke:none"
       transform="matrix(1.3333333,0,0,-1.3333333,136.328,153.48533)" />
    <g
       id="g15"
       aria-label="&#10;1,0&#10;"
       transform="matrix(1.3333333,0,0,1.3333333,254.40667,158.70933)">
      <path
         id="path16"
         d="m 4.1129687,11.450422 c 0,-0.04687 -0.023437,-0.05859 -0.035156,-0.09375 C 3.6207812,10.864484 2.9410937,10.067609 2.5192187,8.4387031 2.2965625,7.5363594 2.2028125,6.5051094 2.2028125,5.5793281 c 0,-2.625 0.6210937,-4.453125 1.8164062,-5.74218748 0.09375,-0.09375 0.09375,-0.1171875 0.09375,-0.140625 0,-0.09375 -0.082031,-0.09375 -0.1171875,-0.09375 -0.1523437,0 -0.6914062,0.59765625 -0.8203125,0.75 C 2.1559375,1.5597969 1.5114062,3.3527656 1.5114062,5.5676094 c 0,1.4179687 0.2460938,3.421875 1.5585938,5.0976566 0.09375,0.128906 0.75,0.878906 0.9257812,0.878906 0.035156,0 0.1171875,0 0.1171875,-0.09375 z m 0,0"
         style="fill:#000000;fill-opacity:1;fill-rule:nonzero;stroke:none" />
      <path
         id="path17"
         d="m 7.4967578,1.6945625 c 0,-0.234375 0,-0.2578125 -0.234375,-0.2578125 -0.609375,0.6328125 -1.4882812,0.6328125 -1.8046875,0.6328125 v 0.3164062 c 0.1992188,0 0.7851563,0 1.3007813,-0.2578125 v 5.15625 c 0,0.3515625 -0.035156,0.4804688 -0.9257813,0.4804688 H 5.5162891 v 0.3046875 c 0.3515625,-0.035156 1.2070312,-0.035156 1.6054687,-0.035156 0.3984375,0 1.265625,0 1.6171875,0.035156 V 7.764875 H 8.4225391 c -0.9023438,0 -0.9257813,-0.1171875 -0.9257813,-0.4804688 z m 0,0"
         style="fill:#000000;fill-opacity:1;fill-rule:nonzero;stroke:none" />
      <path
         id="path18"
         d="m 11.574883,8.0578437 c 0,-0.65625 -0.257813,-1.0429687 -0.644531,-1.0429687 -0.328125,0 -0.527344,0.2460937 -0.527344,0.5273437 0,0.2695313 0.199219,0.5273438 0.527344,0.5273438 0.117187,0 0.246093,-0.035156 0.351562,-0.1289063 0.02344,-0.023437 0.03516,-0.035156 0.04687,-0.035156 0.01172,0 0.02344,0.011719 0.02344,0.1523437 0,0.7382813 -0.351563,1.3359375 -0.679688,1.6640625 -0.105469,0.1054688 -0.105469,0.1289063 -0.105469,0.1640625 0,0.070312 0.04687,0.1054688 0.09375,0.1054688 0.117188,0 0.914063,-0.7617188 0.914063,-1.9335938 z m 0,0"
         style="fill:#000000;fill-opacity:1;fill-rule:nonzero;stroke:none" />
      <path
         id="path19"
         d="m 18.559258,4.8820625 c 0,-0.796875 -0.04687,-1.59375 -0.398438,-2.3320313 C 17.703789,1.5890937 16.883477,1.43675 16.47332,1.43675 c -0.597656,0 -1.335937,0.2578125 -1.734375,1.1835937 -0.328125,0.6914063 -0.375,1.4648438 -0.375,2.2617188 0,0.75 0.04687,1.640625 0.445313,2.4023437 0.433594,0.8085938 1.160156,1.0078125 1.652344,1.0078125 0.539062,0 1.289062,-0.2109375 1.734375,-1.1601562 0.316406,-0.6914063 0.363281,-1.4648438 0.363281,-2.25 z m -2.097656,3.1875 c -0.386719,0 -0.984375,-0.2460938 -1.160157,-1.2070313 C 15.195977,6.264875 15.195977,5.3508125 15.195977,4.764875 c 0,-0.6445313 0,-1.3007813 0.08203,-1.8398438 0.1875,-1.1835937 0.925781,-1.265625 1.183594,-1.265625 0.328125,0 0.984375,0.1757813 1.171875,1.1601563 0.09375,0.5625 0.09375,1.3125 0.09375,1.9453125 0,0.75 0,1.4179687 -0.105469,2.0625 -0.152344,0.9375 -0.714844,1.2421875 -1.160156,1.2421875 z m 0,0"
         style="fill:#000000;fill-opacity:1;fill-rule:nonzero;stroke:none" />
    </g>
    <g
       id="g19"
       aria-label="&#10;√"
       transform="matrix(1.3333333,0,0,1.3333333,239.216,89.733333)">
      <path
         id="path20"
         d="m 4.1124141,11.45 c 0,-0.04687 -0.023437,-0.05859 -0.035156,-0.09375 C 3.6202266,10.864062 2.9405391,10.067187 2.5186641,8.4382812 2.2960078,7.5359375 2.2022578,6.5046875 2.2022578,5.5789062 c 0,-2.625 0.6210938,-4.453125 1.8164063,-5.74218745 0.09375,-0.09375 0.09375,-0.1171875 0.09375,-0.140625 0,-0.09375 -0.082031,-0.09375 -0.1171875,-0.09375 -0.1523438,0 -0.6914063,0.59765625 -0.8203125,0.75 C 2.1553828,1.559375 1.5108516,3.3523437 1.5108516,5.5671875 c 0,1.4179687 0.2460937,3.421875 1.5585937,5.0976565 0.09375,0.128906 0.75,0.878906 0.9257813,0.878906 0.035156,0 0.1171875,0 0.1171875,-0.09375 z m 0,0"
         style="fill:#000000;fill-opacity:1;fill-rule:nonzero;stroke:none" />
      <path
         id="path21"
         d="M 8.4454219,8.3474609 6.6876094,4.4685547 C 6.6172969,4.3162109 6.5704219,4.3162109 6.5352656,4.3162109 c -0.011719,0 -0.058594,0 -0.1640625,0.070312 l -0.9492187,0.726563 c -0.1289063,0.09375 -0.1289063,0.1289063 -0.1289063,0.1523438 0,0.046875 0.035156,0.1054687 0.1054688,0.1054687 0.058594,0 0.2226562,-0.1289062 0.328125,-0.2109375 0.070312,-0.046875 0.2109375,-0.1640625 0.328125,-0.2460937 l 1.9570312,4.3125 c 0.070312,0.1640625 0.1171875,0.1640625 0.2109375,0.1640625 0.1523438,0 0.1757813,-0.058594 0.2460938,-0.1992188 l 4.5234376,-9.36328121 c 0.07031,-0.140625 0.07031,-0.17578125 0.07031,-0.19921875 0,-0.10546875 -0.08203,-0.19921875 -0.199218,-0.19921875 -0.08203,0 -0.152344,0.046875 -0.222657,0.2109375 z m 0,0"
         style="fill:#000000;fill-opacity:1;fill-rule:nonzero;stroke:none" />
    </g>
    <path
       id="path22"
       d="M 0,0 H 4.981"
       style="fill:none;stroke:#000000;stroke-width:0.398;stroke-linecap:butt;stroke-linejoin:miter;stroke-miterlimit:10;stroke-dasharray:none;stroke-opacity:1"
       transform="matrix(1.3333333,0,0,-1.3333333,256.37467,89.238667)" />
    <g
       id="g22"
       aria-label="32,12&#10;"
       transform="matrix(1.3333333,0,0,1.3333333,256.37467,100.49333)">
      <path
         id="path23"
         d="m 2.8947812,-3.5047656 c 0.8085938,-0.2695313 1.3945313,-0.9726563 1.3945313,-1.7578125 0,-0.8203125 -0.8789063,-1.3710938 -1.8398438,-1.3710938 -1.0078125,0 -1.75781245,0.5976563 -1.75781245,1.3476563 0,0.3398437 0.2109375,0.5273437 0.50390625,0.5273437 0.3046875,0 0.5039062,-0.2226562 0.5039062,-0.515625 0,-0.4921875 -0.46875,-0.4921875 -0.609375,-0.4921875 0.3046875,-0.4921875 0.9609375,-0.6210937 1.3242188,-0.6210937 0.4101562,0 0.9492187,0.2226562 0.9492187,1.1132812 0,0.1289063 -0.011719,0.703125 -0.2695312,1.1367188 -0.3046875,0.4804687 -0.6445313,0.515625 -0.890625,0.515625 -0.082031,0.011719 -0.3164063,0.035156 -0.3867188,0.035156 -0.082031,0.011719 -0.1523437,0.023437 -0.1523437,0.1171875 0,0.1171875 0.070312,0.1171875 0.234375,0.1171875 H 2.344 c 0.8085937,0 1.1835937,0.6679688 1.1835937,1.6523438 0,1.34765622 -0.6914062,1.64062497 -1.125,1.64062497 -0.4335937,0 -1.171875,-0.17578125 -1.52343745,-0.76171875 0.35156245,0.0585938 0.65624995,-0.1640625 0.65624995,-0.53906252 0,-0.3632812 -0.2695312,-0.5625 -0.56249995,-0.5625 -0.234375,0 -0.55078125,0.140625 -0.55078125,0.5742188 0,0.91406247 0.9257812,1.57031247 2.0039062,1.57031247 1.21875,0 2.1210938,-0.9140625 2.1210938,-1.92187497 0,-0.8203125 -0.6210938,-1.59375 -1.6523438,-1.8046873 z m 3.3515625,2.74218747 1.0546875,-1.03124997 c 1.5585938,-1.3710938 2.15625,-1.9101563 2.15625,-2.90625 0,-1.1367188 -0.9023437,-1.9335938 -2.1210937,-1.9335938 -1.125,0 -1.8515625,0.9140625 -1.8515625,1.8046875 0,0.5507813 0.4921875,0.5507813 0.5273437,0.5507813 0.1640625,0 0.515625,-0.1171875 0.515625,-0.5273438 0,-0.2578125 -0.1875,-0.515625 -0.5273437,-0.515625 -0.082031,0 -0.1054688,0 -0.1289063,0.011719 0.2226563,-0.6445313 0.7617188,-1.0195313 1.3359375,-1.0195313 0.9140625,0 1.3359375,0.8085938 1.3359375,1.6289063 0,0.796875 -0.4921875,1.5820312 -1.0429687,2.203125 L 5.5900937,-0.36414063 C 5.484625,-0.25867188 5.484625,-0.23523438 5.484625,-8.59375e-4 H 9.1760312 L 9.4572812,-1.7352344 H 9.1994687 c -0.046875,0.3046875 -0.1171875,0.73828127 -0.2109375,0.89062502 -0.070312,0.0820313 -0.7265625,0.0820313 -0.9492187,0.0820313 z m 0,0"
         style="fill:#000000;fill-opacity:1;fill-rule:nonzero;stroke:none" />
      <path
         id="path24"
         d="m 11.988531,-0.01257813 c 0,-0.65625 -0.257812,-1.04296877 -0.644531,-1.04296877 -0.328125,0 -0.527344,0.24609377 -0.527344,0.52734377 0,0.26953125 0.199219,0.527343755 0.527344,0.527343755 0.117187,0 0.246094,-0.035156255 0.351562,-0.128906255 0.02344,-0.0234375 0.03516,-0.0351563 0.04687,-0.0351563 0.01172,0 0.02344,0.0117188 0.02344,0.15234375 0,0.73828125 -0.351563,1.33593748 -0.679688,1.66406248 -0.105468,0.1054687 -0.105468,0.1289062 -0.105468,0.1640625 0,0.070312 0.04687,0.1054687 0.09375,0.1054687 0.117187,0 0.914062,-0.7617187 0.914062,-1.93359368 z m 0,0"
         style="fill:#000000;fill-opacity:1;fill-rule:nonzero;stroke:none" />
      <path
         id="path25"
         d="m 18.978766,-6.3758594 c 0,-0.234375 0,-0.2578125 -0.234375,-0.2578125 -0.609375,0.6328125 -1.488282,0.6328125 -1.804688,0.6328125 v 0.3164063 c 0.199219,0 0.785156,0 1.300781,-0.2578125 v 5.15624997 c 0,0.3515625 -0.03516,0.48046875 -0.925781,0.48046875 h -0.316406 v 0.304687505 c 0.351562,-0.035156255 1.207031,-0.035156255 1.605469,-0.035156255 0.398437,0 1.265625,0 1.617187,0.035156255 V -0.30554688 h -0.316406 c -0.902344,0 -0.925781,-0.1171875 -0.925781,-0.48046875 z m 3.316406,5.61328127 1.054687,-1.03124997 c 1.558594,-1.3710938 2.15625,-1.9101563 2.15625,-2.90625 0,-1.1367188 -0.902343,-1.9335938 -2.121093,-1.9335938 -1.125,0 -1.851563,0.9140625 -1.851563,1.8046875 0,0.5507813 0.492188,0.5507813 0.527344,0.5507813 0.164062,0 0.515625,-0.1171875 0.515625,-0.5273438 0,-0.2578125 -0.1875,-0.515625 -0.527344,-0.515625 -0.08203,0 -0.105469,0 -0.128906,0.011719 0.222656,-0.6445313 0.761719,-1.0195313 1.335937,-1.0195313 0.914063,0 1.335938,0.8085938 1.335938,1.6289063 0,0.796875 -0.492188,1.5820312 -1.042969,2.203125 l -1.910156,2.13281247 c -0.105469,0.10546875 -0.105469,0.12890625 -0.105469,0.363281255 h 3.691406 l 0.28125,-1.734375025 h -0.257812 c -0.04687,0.3046875 -0.117188,0.73828127 -0.210938,0.89062502 -0.07031,0.0820313 -0.726562,0.0820313 -0.949218,0.0820313 z m 0,0"
         style="fill:#000000;fill-opacity:1;fill-rule:nonzero;stroke:none" />
    </g>
    <g
       id="g25"
       aria-label="&#10;√"
       transform="matrix(1.3333333,0,0,1.3333333,221.19733,53.206667)">
      <path
         id="path26"
         d="m 4.1146953,11.449492 c 0,-0.04687 -0.023437,-0.05859 -0.035156,-0.09375 C 3.6225078,10.863555 2.9428203,10.06668 2.5209453,8.4377734 2.2982891,7.5354297 2.2045391,6.5041797 2.2045391,5.5783984 c 0,-2.625 0.6210937,-4.453125 1.8164062,-5.74218746 0.09375,-0.09375 0.09375,-0.1171875 0.09375,-0.140625 0,-0.09375 -0.082031,-0.09375 -0.1171875,-0.09375 -0.1523437,0 -0.6914062,0.59765625 -0.8203125,0.75 C 2.1576641,1.5588672 1.5131328,3.3518359 1.5131328,5.5666797 c 0,1.4179687 0.2460938,3.421875 1.5585938,5.0976563 0.09375,0.128906 0.75,0.878906 0.9257812,0.878906 0.035156,0 0.1171875,0 0.1171875,-0.09375 z m 0,0"
         style="fill:#000000;fill-opacity:1;fill-rule:nonzero;stroke:none" />
      <path
         id="path27"
         d="M 8.4447734,8.3498828 6.6869609,4.4709766 C 6.6166484,4.3186328 6.5697734,4.3186328 6.5346172,4.3186328 c -0.011719,0 -0.058594,0 -0.1640625,0.070312 l -0.9492188,0.726563 c -0.1289062,0.09375 -0.1289062,0.1289063 -0.1289062,0.1523438 0,0.046875 0.035156,0.1054687 0.1054687,0.1054687 0.058594,0 0.2226563,-0.1289062 0.328125,-0.2109375 0.070312,-0.046875 0.2109375,-0.1640625 0.328125,-0.2460937 l 1.9570313,4.3125 c 0.070312,0.1640625 0.1171875,0.1640625 0.2109375,0.1640625 0.1523437,0 0.1757812,-0.058594 0.2460937,-0.1992188 l 4.5234371,-9.36328124 c 0.07031,-0.140625 0.07031,-0.17578125 0.07031,-0.19921875 0,-0.10546875 -0.08203,-0.19921875 -0.199219,-0.19921875 -0.08203,0 -0.152344,0.046875 -0.222656,0.2109375 z m 0,0"
         style="fill:#000000;fill-opacity:1;fill-rule:nonzero;stroke:none" />
    </g>
    <path
       id="path28"
       d="M 0,0 H 4.981"
       style="fill:none;stroke:#000000;stroke-width:0.398;stroke-linecap:butt;stroke-linejoin:miter;stroke-miterlimit:10;stroke-dasharray:none;stroke-opacity:1"
       transform="matrix(1.3333333,0,0,-1.3333333,238.35467,52.713333)" />
    <g
       id="g28"
       aria-label="22,&#10;√"
       transform="matrix(1.3333333,0,0,1.3333333,238.35467,63.966667)">
      <path
         id="path29"
         d="M 1.2662266,-0.76308594 2.3209141,-1.7943359 c 1.5585937,-1.3710938 2.15625,-1.9101563 2.15625,-2.90625 0,-1.1367188 -0.9023438,-1.9335938 -2.1210938,-1.9335938 -1.125,0 -1.85156249,0.9140625 -1.85156249,1.8046875 0,0.5507813 0.4921875,0.5507813 0.52734379,0.5507813 0.1640625,0 0.515625,-0.1171875 0.515625,-0.5273438 0,-0.2578125 -0.1875,-0.515625 -0.5273438,-0.515625 -0.0820312,0 -0.10546874,0 -0.12890624,0.011719 C 1.1138828,-5.954492 1.6529453,-6.329492 2.2271641,-6.329492 c 0.9140625,0 1.3359375,0.8085938 1.3359375,1.6289063 0,0.796875 -0.4921875,1.5820312 -1.0429688,2.203125 L 0.60997656,-0.36464844 C 0.50450781,-0.25917969 0.50450781,-0.23574219 0.50450781,-0.00136719 H 4.1959141 l 0.28125,-1.73437501 H 4.2193516 c -0.046875,0.3046875 -0.1171875,0.73828126 -0.2109375,0.89062501 -0.070313,0.0820313 -0.7265625,0.0820313 -0.9492188,0.0820313 z m 4.9804687,0 1.0546875,-1.03124996 c 1.5585938,-1.3710938 2.15625,-1.9101563 2.15625,-2.90625 0,-1.1367188 -0.9023437,-1.9335938 -2.1210937,-1.9335938 -1.125,0 -1.8515625,0.9140625 -1.8515625,1.8046875 0,0.5507813 0.4921875,0.5507813 0.5273437,0.5507813 0.1640625,0 0.515625,-0.1171875 0.515625,-0.5273438 0,-0.2578125 -0.1875,-0.515625 -0.5273437,-0.515625 -0.082031,0 -0.1054688,0 -0.1289063,0.011719 0.2226563,-0.6445313 0.7617188,-1.0195313 1.3359375,-1.0195313 0.9140625,0 1.3359375,0.8085938 1.3359375,1.6289063 0,0.796875 -0.4921875,1.5820312 -1.0429687,2.203125 L 5.5904453,-0.36464824 C 5.4849766,-0.25917949 5.4849766,-0.23574199 5.4849766,-0.00136699 H 9.1763828 L 9.4576328,-1.735742 H 9.1998203 c -0.046875,0.3046875 -0.1171875,0.73828126 -0.2109375,0.89062501 -0.070312,0.0820313 -0.7265625,0.0820313 -0.9492187,0.0820313 z m 0,0"
         style="fill:#000000;fill-opacity:1;fill-rule:nonzero;stroke:none" />
      <path
         id="path30"
         d="m 11.988883,-0.01308594 c 0,-0.65625 -0.257813,-1.04296876 -0.644531,-1.04296876 -0.328125,0 -0.527344,0.24609376 -0.527344,0.52734376 0,0.26953125 0.199219,0.52734375 0.527344,0.52734375 0.117187,0 0.246093,-0.03515625 0.351562,-0.12890625 0.02344,-0.0234375 0.03516,-0.0351563 0.04687,-0.0351563 0.01172,0 0.02344,0.0117188 0.02344,0.15234375 0,0.73828125 -0.351563,1.33593749 -0.679688,1.66406249 -0.105469,0.1054688 -0.105469,0.1289063 -0.105469,0.1640625 0,0.070312 0.04687,0.1054688 0.09375,0.1054688 0.117188,0 0.914063,-0.7617187 0.914063,-1.93359379 z m 0,0"
         style="fill:#000000;fill-opacity:1;fill-rule:nonzero;stroke:none" />
      <path
         id="path31"
         d="M 19.931266,0.27988281 18.173453,-3.5990234 c -0.07031,-0.1523438 -0.117187,-0.1523438 -0.152344,-0.1523438 -0.01172,0 -0.05859,0 -0.164062,0.070312 l -0.949219,0.7265625 c -0.128906,0.09375 -0.128906,0.1289063 -0.128906,0.1523438 0,0.046875 0.03516,0.1054687 0.105469,0.1054687 0.05859,0 0.222656,-0.1289062 0.328125,-0.2109375 0.07031,-0.046875 0.210937,-0.1640625 0.328125,-0.2460937 l 1.957031,4.3125 c 0.07031,0.1640625 0.117187,0.1640625 0.210937,0.1640625 0.152344,0 0.175782,-0.058594 0.246094,-0.1992188 l 4.523438,-9.3632812 c 0.07031,-0.140625 0.07031,-0.1757813 0.07031,-0.1992188 0,-0.1054687 -0.08203,-0.1992187 -0.199219,-0.1992187 -0.08203,0 -0.152343,0.046875 -0.222656,0.2109375 z m 0,0"
         style="fill:#000000;fill-opacity:1;fill-rule:nonzero;stroke:none" />
    </g>
    <path
       id="path32"
       d="M 0,0 H 4.981"
       style="fill:none;stroke:#000000;stroke-width:0.398;stroke-linecap:butt;stroke-linejoin:miter;stroke-miterlimit:10;stroke-dasharray:none;stroke-opacity:1"
       transform="matrix(1.3333333,0,0,-1.3333333,270.82533,52.713333)" />
    <path
       id="path33"
       d="M 1.2647891,-0.76308594 2.3194766,-1.7943359 c 1.5585937,-1.3710938 2.15625,-1.9101563 2.15625,-2.90625 0,-1.1367188 -0.9023438,-1.9335938 -2.1210938,-1.9335938 -1.125,0 -1.85156249,0.9140625 -1.85156249,1.8046875 0,0.5507813 0.4921875,0.5507813 0.52734379,0.5507813 0.1640625,0 0.515625,-0.1171875 0.515625,-0.5273438 0,-0.2578125 -0.1875,-0.515625 -0.5273438,-0.515625 -0.0820312,0 -0.10546874,0 -0.12890624,0.011719 C 1.1124453,-5.954492 1.6515078,-6.329492 2.2257266,-6.329492 c 0.9140625,0 1.3359375,0.8085938 1.3359375,1.6289063 0,0.796875 -0.4921875,1.5820312 -1.0429688,2.203125 L 0.60853906,-0.36464844 C 0.50307031,-0.25917969 0.50307031,-0.23574219 0.50307031,-0.00136719 H 4.1944766 l 0.28125,-1.73437501 H 4.2179141 c -0.046875,0.3046875 -0.1171875,0.73828126 -0.2109375,0.89062501 -0.070312,0.0820313 -0.7265625,0.0820313 -0.9492188,0.0820313 z m 4.9833984,0 1.0546875,-1.03124996 c 1.5585938,-1.3710938 2.15625,-1.9101563 2.15625,-2.90625 0,-1.1367188 -0.9023437,-1.9335938 -2.1210937,-1.9335938 -1.125,0 -1.8515625,0.9140625 -1.8515625,1.8046875 0,0.5507813 0.4921875,0.5507813 0.5273437,0.5507813 0.1640625,0 0.515625,-0.1171875 0.515625,-0.5273438 0,-0.2578125 -0.1875,-0.515625 -0.5273437,-0.515625 -0.082031,0 -0.1054688,0 -0.1289063,0.011719 0.2226563,-0.6445313 0.7617188,-1.0195313 1.3359375,-1.0195313 0.9140625,0 1.3359375,0.8085938 1.3359375,1.6289063 0,0.796875 -0.4921875,1.5820312 -1.0429687,2.203125 L 5.5919375,-0.36464844 C 5.4864688,-0.25917969 5.4864688,-0.23574219 5.4864688,-0.00136719 H 9.177875 L 9.459125,-1.7357422 H 9.2013125 c -0.046875,0.3046875 -0.1171875,0.73828126 -0.2109375,0.89062501 -0.070312,0.0820313 -0.7265625,0.0820313 -0.9492187,0.0820313 z m 0,0"
       style="fill:#000000;fill-opacity:1;fill-rule:nonzero;stroke:none"
       aria-label="22&#10;"
       transform="matrix(1.3333333,0,0,1.3333333,270.82533,63.966667)" />
    <g
       id="g33"
       aria-label="&#10;12,&#10;√"
       transform="matrix(1.3333333,0,0,1.3333333,164.056,35.188)">
      <path
         id="path34"
         d="m 4.1122969,11.448844 c 0,-0.04687 -0.023437,-0.05859 -0.035156,-0.09375 C 3.6201094,10.862906 2.9404219,10.066031 2.5185469,8.437125 2.2958906,7.5347812 2.2021406,6.5035312 2.2021406,5.57775 c 0,-2.625 0.6210938,-4.453125 1.8164063,-5.7421875 0.09375,-0.09375 0.09375,-0.1171875 0.09375,-0.140625 0,-0.09375 -0.082031,-0.09375 -0.1171875,-0.09375 -0.1523438,0 -0.6914063,0.59765625 -0.8203125,0.75 -1.0195313,1.2070312 -1.6640625,3 -1.6640625,5.2148437 0,1.4179688 0.2460937,3.421875 1.5585937,5.0976558 0.09375,0.128907 0.75,0.878907 0.9257813,0.878907 0.035156,0 0.1171875,0 0.1171875,-0.09375 z m 0,0"
         style="fill:#000000;fill-opacity:1;fill-rule:nonzero;stroke:none" />
      <path
         id="path35"
         d="m 7.4960859,1.6959141 c 0,-0.234375 0,-0.2578125 -0.234375,-0.2578125 -0.609375,0.6328125 -1.4882812,0.6328125 -1.8046875,0.6328125 v 0.3164062 c 0.1992188,0 0.7851563,0 1.3007813,-0.2578125 v 5.15625 c 0,0.3515625 -0.035156,0.4804688 -0.9257813,0.4804688 H 5.5156172 v 0.3046875 c 0.3515625,-0.035156 1.2070312,-0.035156 1.6054687,-0.035156 0.3984375,0 1.265625,0 1.6171875,0.035156 V 7.7662266 H 8.4218672 c -0.9023438,0 -0.9257813,-0.1171875 -0.9257813,-0.4804688 z m 3.3164061,5.6132812 1.054688,-1.03125 c 1.558593,-1.3710937 2.15625,-1.9101562 2.15625,-2.90625 0,-1.1367187 -0.902344,-1.9335937 -2.121094,-1.9335937 -1.125,0 -1.851563,0.9140625 -1.851563,1.8046875 0,0.5507812 0.492188,0.5507812 0.527344,0.5507812 0.164063,0 0.515625,-0.1171875 0.515625,-0.5273437 0,-0.2578125 -0.1875,-0.515625 -0.527344,-0.515625 -0.08203,0 -0.105468,0 -0.128906,0.011719 0.222656,-0.6445312 0.761719,-1.0195312 1.335938,-1.0195312 0.914062,0 1.335937,0.8085937 1.335937,1.6289062 0,0.796875 -0.492187,1.5820313 -1.042969,2.203125 l -1.910156,2.1328125 c -0.105469,0.1054688 -0.105469,0.1289063 -0.105469,0.3632813 h 3.691407 l 0.28125,-1.734375 h -0.257813 c -0.04687,0.3046875 -0.117187,0.7382812 -0.210937,0.890625 -0.07031,0.082031 -0.726563,0.082031 -0.949219,0.082031 z m 0,0"
         style="fill:#000000;fill-opacity:1;fill-rule:nonzero;stroke:none" />
      <path
         id="path36"
         d="m 16.55468,8.0591953 c 0,-0.65625 -0.257813,-1.0429687 -0.644532,-1.0429687 -0.328125,0 -0.527343,0.2460937 -0.527343,0.5273437 0,0.2695313 0.199218,0.5273438 0.527343,0.5273438 0.117188,0 0.246094,-0.035156 0.351563,-0.1289063 0.02344,-0.023437 0.03516,-0.035156 0.04687,-0.035156 0.01172,0 0.02344,0.011719 0.02344,0.1523437 0,0.7382813 -0.351562,1.3359375 -0.679687,1.6640625 -0.105469,0.1054688 -0.105469,0.1289063 -0.105469,0.1640625 0,0.070312 0.04687,0.1054688 0.09375,0.1054688 0.117188,0 0.914063,-0.7617188 0.914063,-1.9335938 z m 0,0"
         style="fill:#000000;fill-opacity:1;fill-rule:nonzero;stroke:none" />
      <path
         id="path37"
         d="M 24.497062,8.3463047 22.73925,4.4673984 C 22.66894,4.3150547 22.622062,4.3150547 22.586906,4.3150547 c -0.01172,0 -0.05859,0 -0.164062,0.070312 l -0.949219,0.7265625 c -0.128906,0.09375 -0.128906,0.1289062 -0.128906,0.1523437 0,0.046875 0.03516,0.1054688 0.105468,0.1054688 0.05859,0 0.222657,-0.1289063 0.328125,-0.2109375 0.07031,-0.046875 0.210938,-0.1640625 0.328125,-0.2460938 l 1.957032,4.3125 c 0.07031,0.1640625 0.117187,0.1640625 0.210937,0.1640625 0.152344,0 0.175781,-0.058594 0.246094,-0.1992187 l 4.523437,-9.36328126 c 0.07031,-0.140625 0.07031,-0.17578125 0.07031,-0.19921875 0,-0.10546875 -0.08203,-0.19921875 -0.199219,-0.19921875 -0.08203,0 -0.152344,0.046875 -0.222656,0.2109375 z m 0,0"
         style="fill:#000000;fill-opacity:1;fill-rule:nonzero;stroke:none" />
    </g>
    <path
       id="path38"
       d="M 0,0 H 4.981"
       style="fill:none;stroke:#000000;stroke-width:0.398;stroke-linecap:butt;stroke-linejoin:miter;stroke-miterlimit:10;stroke-dasharray:none;stroke-opacity:1"
       transform="matrix(1.3333333,0,0,-1.3333333,202.61467,34.693333)" />
    <path
       id="path39"
       d="m 2.8934922,-3.5029922 c 0.8085937,-0.2695312 1.3945312,-0.9726562 1.3945312,-1.7578125 0,-0.8203125 -0.8789062,-1.3710937 -1.8398437,-1.3710937 -1.0078125,0 -1.75781251,0.5976562 -1.75781251,1.3476562 0,0.3398438 0.2109375,0.5273438 0.50390621,0.5273438 0.3046875,0 0.5039063,-0.2226563 0.5039063,-0.515625 0,-0.4921875 -0.46875,-0.4921875 -0.609375,-0.4921875 0.3046875,-0.4921875 0.9609375,-0.6210938 1.3242187,-0.6210938 0.4101563,0 0.9492188,0.2226563 0.9492188,1.1132813 0,0.1289062 -0.011719,0.703125 -0.2695313,1.1367187 -0.3046875,0.4804688 -0.6445312,0.515625 -0.890625,0.515625 -0.082031,0.011719 -0.3164062,0.035156 -0.3867187,0.035156 -0.082031,0.011719 -0.1523438,0.023437 -0.1523438,0.1171875 0,0.1171875 0.070312,0.1171875 0.234375,0.1171875 h 0.4453125 c 0.8085938,0 1.1835938,0.6679687 1.1835938,1.6523437 0,1.34765626 -0.6914063,1.64062501 -1.125,1.64062501 -0.4335938,0 -1.171875,-0.17578125 -1.52343751,-0.76171875 0.35156251,0.0585938 0.65625001,-0.1640625 0.65625001,-0.53906246 0,-0.3632813 -0.2695313,-0.5625 -0.56250001,-0.5625 -0.234375,0 -0.55078125,0.140625 -0.55078125,0.5742187 0,0.91406251 0.92578126,1.57031251 2.00390626,1.57031251 1.21875,0 2.1210937,-0.9140625 2.1210937,-1.92187501 0,-0.8203125 -0.6210937,-1.59375 -1.6523437,-1.8046872 z m 3.3544922,2.74218751 1.0546875,-1.03125001 c 1.5585937,-1.3710937 2.15625,-1.9101562 2.15625,-2.90625 0,-1.1367187 -0.9023438,-1.9335937 -2.1210938,-1.9335937 -1.125,0 -1.8515625,0.9140625 -1.8515625,1.8046875 0,0.5507812 0.4921875,0.5507812 0.5273438,0.5507812 0.1640625,0 0.515625,-0.1171875 0.515625,-0.5273437 0,-0.2578125 -0.1875,-0.515625 -0.5273438,-0.515625 -0.082031,0 -0.1054687,0 -0.1289062,0.011719 0.2226562,-0.6445312 0.7617187,-1.0195312 1.3359375,-1.0195312 0.9140625,0 1.3359375,0.8085937 1.3359375,1.6289062 0,0.796875 -0.4921875,1.5820313 -1.0429688,2.203125 L 5.5917344,-0.36236719 C 5.4862656,-0.25689844 5.4862656,-0.23346094 5.4862656,9.140625e-4 H 9.1776719 L 9.4589219,-1.7334609 H 9.2011094 c -0.046875,0.3046875 -0.1171875,0.73828121 -0.2109375,0.89062496 -0.070312,0.0820313 -0.7265625,0.0820313 -0.9492188,0.0820313 z m 0,0"
       style="fill:#000000;fill-opacity:1;fill-rule:nonzero;stroke:none"
       aria-label="32&#10;"
       transform="matrix(1.3333333,0,0,1.3333333,202.61467,45.948)" />
    <g
       id="g39"
       aria-label="&#10;0,1&#10;"
       transform="matrix(1.3333333,0,0,1.3333333,100.27067,19.997333)">
      <path
         id="path40"
         d="m 4.1124297,11.448289 c 0,-0.04687 -0.023437,-0.05859 -0.035156,-0.09375 C 3.6202422,10.862352 2.9405547,10.065477 2.5186797,8.4365703 2.2960234,7.5342266 2.2022734,6.5029766 2.2022734,5.5771953 c 0,-2.625 0.6210938,-4.453125 1.8164063,-5.74218749 0.09375,-0.09375 0.09375,-0.1171875 0.09375,-0.140625 0,-0.09375 -0.082031,-0.09375 -0.1171875,-0.09375 -0.1523438,0 -0.6914063,0.59765625 -0.8203125,0.75 C 2.1553984,1.5576641 1.5108672,3.3506328 1.5108672,5.5654766 c 0,1.4179687 0.2460937,3.421875 1.5585937,5.0976564 0.09375,0.128906 0.75,0.878906 0.9257813,0.878906 0.035156,0 0.1171875,0 0.1171875,-0.09375 z m 0,0"
         style="fill:#000000;fill-opacity:1;fill-rule:nonzero;stroke:none" />
      <path
         id="path41"
         d="m 9.1485625,4.8828594 c 0,-0.796875 -0.046875,-1.59375 -0.3984375,-2.3320313 -0.4570313,-0.9609375 -1.2773438,-1.1132812 -1.6875,-1.1132812 -0.5976563,0 -1.3359375,0.2578125 -1.734375,1.1835937 -0.328125,0.6914063 -0.375,1.4648438 -0.375,2.2617188 0,0.75 0.046875,1.640625 0.4453125,2.4023437 0.4335937,0.8085938 1.1601562,1.0078125 1.6523437,1.0078125 0.5390625,0 1.2890625,-0.2109375 1.734375,-1.1601562 0.3164063,-0.6914063 0.3632813,-1.4648438 0.3632813,-2.25 z m -2.0976563,3.1875 C 6.6641875,8.0703594 6.0665312,7.8242656 5.89075,6.8633281 5.7852812,6.2656719 5.7852812,5.3516094 5.7852812,4.7656719 c 0,-0.6445313 0,-1.3007813 0.082031,-1.8398438 0.1875,-1.1835937 0.9257812,-1.265625 1.1835937,-1.265625 0.328125,0 0.984375,0.1757813 1.171875,1.1601563 0.09375,0.5625 0.09375,1.3125 0.09375,1.9453125 0,0.75 0,1.4179687 -0.1054687,2.0625 -0.1523438,0.9375 -0.7148438,1.2421875 -1.160156,1.2421875 z m 0,0"
         style="fill:#000000;fill-opacity:1;fill-rule:nonzero;stroke:none" />
      <path
         id="path42"
         d="m 11.574344,8.0586406 c 0,-0.65625 -0.257813,-1.0429687 -0.644532,-1.0429687 -0.328125,0 -0.527343,0.2460937 -0.527343,0.5273437 0,0.2695313 0.199218,0.5273438 0.527343,0.5273438 0.117188,0 0.246094,-0.035156 0.351563,-0.1289063 0.02344,-0.023437 0.03516,-0.035156 0.04687,-0.035156 0.01172,0 0.02344,0.011719 0.02344,0.1523437 0,0.7382813 -0.351562,1.3359375 -0.679687,1.6640625 -0.105469,0.1054688 -0.105469,0.1289063 -0.105469,0.1640625 0,0.070312 0.04687,0.1054688 0.09375,0.1054688 0.117188,0 0.914063,-0.7617188 0.914063,-1.9335938 z m 0,0"
         style="fill:#000000;fill-opacity:1;fill-rule:nonzero;stroke:none" />
      <path
         id="path43"
         d="m 16.909305,1.6953594 c 0,-0.234375 0,-0.2578125 -0.234375,-0.2578125 -0.609375,0.6328125 -1.488282,0.6328125 -1.804688,0.6328125 v 0.3164062 c 0.199219,0 0.785156,0 1.300781,-0.2578125 v 5.15625 c 0,0.3515625 -0.03516,0.4804688 -0.925781,0.4804688 h -0.316406 v 0.3046875 c 0.351562,-0.035156 1.207031,-0.035156 1.605469,-0.035156 0.398437,0 1.265625,0 1.617187,0.035156 V 7.7656719 h -0.316406 c -0.902344,0 -0.925781,-0.1171875 -0.925781,-0.4804688 z m 0,0"
         style="fill:#000000;fill-opacity:1;fill-rule:nonzero;stroke:none" />
    </g>
    <path
       id="path44"
       d="m 42.52019,0 c 0,15.1892 -8.10622,29.22939 -21.2601,36.82365"
       style="fill:none;stroke:#0000ff;stroke-width:1.19553;stroke-linecap:butt;stroke-linejoin:miter;stroke-miterlimit:10;stroke-dasharray:none;stroke-opacity:1"
       transform="matrix(1.3333333,0,0,-1.3333333,136.328,153.48533)" />
    <path
       id="path45"
       d="m 4.5343359,-4.9818437 c 0,-0.65625 -0.1875,-2.0390625 -1.1953125,-2.0390625 -1.3828125,0 -2.91796871,2.8007812 -2.91796871,5.0859375 0,0.93749995 0.28125,2.03906245 1.19531251,2.03906245 1.40625,0 2.9179687,-2.85937495 2.9179687,-5.08593745 z m -3.0585937,1.359375 c 0.1640625,-0.6328125 0.3632812,-1.4296875 0.7617187,-2.1328125 0.2695313,-0.4921875 0.6445313,-1.0546875 1.0898438,-1.0546875 0.4921875,0 0.5507812,0.6445312 0.5507812,1.2070312 0,0.4921875 -0.082031,0.9960938 -0.328125,1.9804688 z m 1.9921875,0.328125 c -0.1171875,0.4570312 -0.3164063,1.3007812 -0.703125,2.015625 -0.3398438,0.67968745 -0.7265625,1.17187495 -1.1484375,1.17187495 -0.328125,0 -0.5390625,-0.29296875 -0.5390625,-1.21874995 0,-0.421875 0.058594,-0.9960938 0.3164062,-1.96875 z m 0,0"
       style="fill:#0000ff;fill-opacity:1;fill-rule:nonzero;stroke:none"
       aria-label="θ"
       transform="matrix(1.3333333,0,0,1.3333333,178.38,137.68933)" />
    <path
       id="path46"
       d="M 42.52019,73.64732 V 0"
       style="fill:none;stroke:#000000;stroke-width:0.3985;stroke-linecap:butt;stroke-linejoin:miter;stroke-miterlimit:10;stroke-dasharray:2.98883, 2.98883;stroke-dashoffset:0;stroke-opacity:1"
       transform="matrix(1.3333333,0,0,-1.3333333,136.328,153.48533)" />
    <path
       id="path47"
       d="M 42.52019,73.64732 H 0"
       style="fill:none;stroke:#000000;stroke-width:0.3985;stroke-linecap:butt;stroke-linejoin:miter;stroke-miterlimit:10;stroke-dasharray:2.98883, 2.98883;stroke-dashoffset:0;stroke-opacity:1"
       transform="matrix(1.3333333,0,0,-1.3333333,136.328,153.48533)" />
    <g
       id="g47"
       aria-label="cosθ"
       transform="matrix(1.3333333,0,0,1.3333333,179.71867,167.40267)">
      <path
         id="path48"
         d="m 1.1602188,-2.1682109 c 0,-1.6289063 0.8203125,-2.0507813 1.3476562,-2.0507813 0.09375,0 0.7148438,0.011719 1.0664063,0.375 -0.4101563,0.023437 -0.46875,0.328125 -0.46875,0.4570313 0,0.2578125 0.1875,0.4570312 0.4570312,0.4570312 0.2578125,0 0.4570313,-0.1640625 0.4570313,-0.46875 0,-0.6796875 -0.75,-1.0664062 -1.5234375,-1.0664062 -1.2421875,0 -2.15625005,1.078125 -2.15625005,2.3085937 0,1.27734376 0.98437505,2.26171876 2.14453125,2.26171876 1.3359375,0 1.6523438,-1.19531246 1.6523438,-1.28906246 0,-0.1054688 -0.1054688,-0.1054688 -0.1289063,-0.1054688 -0.09375,0 -0.1171875,0.046875 -0.1289062,0.1054688 -0.2929688,0.92578121 -0.9375,1.04296871 -1.3125,1.04296871 -0.5273438,0 -1.40625,-0.421875 -1.40625,-2.02734371 z m 7.9541015,0.035156 c 0,-1.2773437 -0.9960937,-2.3320312 -2.1914062,-2.3320312 -1.2539063,0 -2.2148438,1.0898437 -2.2148438,2.3320312 0,1.28906251 1.03125,2.23828126 2.203125,2.23828126 1.2070313,0 2.203125,-0.97265625 2.203125,-2.23828126 z m -2.1914062,1.99218751 c -0.4335938,0 -0.8671875,-0.2109375 -1.1367188,-0.66796875 C 5.5283828,-1.2424297 5.5283828,-1.8518047 5.5283828,-2.2150859 c 0,-0.3867188 0,-0.9257813 0.2460938,-1.359375 0.2695312,-0.4570313 0.7382812,-0.6679688 1.1367187,-0.6679688 0.4335938,0 0.8671875,0.2226563 1.125,0.6445313 0.2578125,0.4335937 0.2578125,1.0078125 0.2578125,1.3828125 0,0.3632812 0,0.9023437 -0.2226562,1.33593746 -0.2226563,0.4453125 -0.65625,0.73828125 -1.1484375,0.73828105 z M 11.481508,-1.9338359 c 0.222656,0.035156 1.03125,0.1992187 1.03125,0.9140625 0,0.51562496 -0.351563,0.91406246 -1.125,0.91406246 -0.832031,0 -1.195313,-0.57421875 -1.382813,-1.41796876 -0.035156,-0.1289062 -0.035156,-0.1757812 -0.1406247,-0.1757812 -0.1289062,0 -0.1289062,0.070312 -0.1289062,0.2578125 v 1.31249996 c 0,0.1640625 0,0.234375 0.1054687,0.234375 0.058594,0 0.070312,0 0.2578122,-0.19921875 0.01172,-0.01171875 0.01172,-0.03515625 0.199219,-0.22265625 0.433594,0.421875 0.878906,0.421875 1.089844,0.421875 1.148437,0 1.605469,-0.66796875 1.605469,-1.38281246 0,-0.5273438 -0.292969,-0.8203125 -0.421875,-0.9492188 -0.328125,-0.3164062 -0.714844,-0.3984375 -1.136719,-0.46875 -0.550781,-0.1171875 -1.21875,-0.2460937 -1.21875,-0.8203125 0,-0.3515625 0.257812,-0.7617187 1.113281,-0.7617187 1.101563,0 1.148438,0.9023437 1.171875,1.2070312 0,0.09375 0.09375,0.09375 0.117188,0.09375 0.128906,0 0.128906,-0.046875 0.128906,-0.2460937 v -0.9960938 c 0,-0.1757812 0,-0.2460937 -0.117188,-0.2460937 -0.04687,0 -0.07031,0 -0.199218,0.1171875 -0.02344,0.046875 -0.128907,0.1289062 -0.164063,0.1640625 -0.375,-0.28125 -0.785156,-0.28125 -0.9375,-0.28125 -1.21875,0 -1.5937499,0.6679687 -1.5937499,1.2304687 0,0.3398438 0.1640625,0.6210938 0.4335939,0.84375 0.316406,0.2578125 0.597656,0.3164063 1.3125,0.4570313 z m 0,0"
         style="fill:#000000;fill-opacity:1;fill-rule:nonzero;stroke:none" />
      <path
         id="path49"
         d="m 19.538148,-4.9807109 c 0,-0.65625 -0.1875,-2.0390625 -1.195312,-2.0390625 -1.382813,0 -2.917969,2.8007812 -2.917969,5.0859375 0,0.93749996 0.28125,2.03906246 1.195313,2.03906246 1.40625,0 2.917968,-2.85937496 2.917968,-5.08593746 z m -3.058593,1.359375 c 0.164062,-0.6328125 0.363281,-1.4296875 0.761718,-2.1328125 0.269532,-0.4921875 0.644532,-1.0546875 1.089844,-1.0546875 0.492188,0 0.550781,0.6445312 0.550781,1.2070312 0,0.4921875 -0.08203,0.9960938 -0.328125,1.9804688 z m 1.992187,0.328125 c -0.117187,0.4570312 -0.316406,1.3007812 -0.703125,2.015625 -0.339844,0.67968746 -0.726562,1.17187496 -1.148437,1.17187496 -0.328125,0 -0.539063,-0.29296875 -0.539063,-1.21874996 0,-0.421875 0.05859,-0.9960938 0.316406,-1.96875 z m 0,0"
         style="fill:#000000;fill-opacity:1;fill-rule:nonzero;stroke:none" />
    </g>
    <g
       id="g49"
       aria-label="sinθ"
       transform="matrix(1.3333333,0,0,1.3333333,106.50667,59.902667)">
      <path
         id="path50"
         d="m 2.0750781,-1.9338359 c 0.2226563,0.035156 1.03125,0.1992187 1.03125,0.9140625 0,0.51562496 -0.3515625,0.91406246 -1.125,0.91406246 -0.8320312,0 -1.19531248,-0.57421875 -1.38281248,-1.41796876 -0.0351563,-0.1289062 -0.0351563,-0.1757812 -0.140625,-0.1757812 -0.12890625,0 -0.12890625,0.070312 -0.12890625,0.2578125 v 1.31249996 c 0,0.1640625 0,0.234375 0.10546875,0.234375 0.0585938,0 0.0703125,0 0.2578125,-0.19921875 0.0117188,-0.01171875 0.0117188,-0.03515625 0.19921875,-0.22265625 0.43359373,0.421875 0.87890623,0.421875 1.08984373,0.421875 1.1484375,0 1.6054688,-0.66796875 1.6054688,-1.38281246 0,-0.5273438 -0.2929688,-0.8203125 -0.421875,-0.9492188 -0.328125,-0.3164062 -0.7148438,-0.3984375 -1.1367188,-0.46875 -0.5507812,-0.1171875 -1.21874998,-0.2460937 -1.21874998,-0.8203125 0,-0.3515625 0.25781248,-0.7617187 1.11328128,-0.7617187 1.1015625,0 1.1484375,0.9023437 1.171875,1.2070312 0,0.09375 0.09375,0.09375 0.1171875,0.09375 0.1289062,0 0.1289062,-0.046875 0.1289062,-0.2460937 v -0.9960938 c 0,-0.1757812 0,-0.2460937 -0.1171875,-0.2460937 -0.046875,0 -0.070312,0 -0.1992187,0.1171875 -0.023437,0.046875 -0.1289063,0.1289062 -0.1640625,0.1640625 -0.375,-0.28125 -0.7851563,-0.28125 -0.9375,-0.28125 -1.21875003,0 -1.59375003,0.6679687 -1.59375003,1.2304687 0,0.3398438 0.1640625,0.6210938 0.43359375,0.84375 0.31640628,0.2578125 0.59765628,0.3164063 1.31249998,0.4570313 z m 3.6123047,-2.4726563 -1.3945312,0.1171875 v 0.3046875 c 0.65625,0 0.7382812,0.058594 0.7382812,0.5507813 v 2.67187496 c 0,0.45703125 -0.1054687,0.45703125 -0.7734375,0.45703125 V -2.421875e-4 C 4.5741016,-0.01196094 5.1131641,-0.03539844 5.3592578,-0.03539844 c 0.3398438,0 0.6914063,0.0234375 1.03125,0.0351562525 V -0.30492969 c -0.65625,0 -0.703125,-0.0585938 -0.703125,-0.4453125 z m 0.046875,-1.734375 c 0,-0.3164062 -0.2460937,-0.5273437 -0.5273437,-0.5273437 -0.3164063,0 -0.5273438,0.2695312 -0.5273438,0.5273437 0,0.2695313 0.2109375,0.5273438 0.5273438,0.5273438 0.28125,0 0.5273437,-0.1992188 0.5273437,-0.5273438 z m 2.0654297,2.71875 v 2.66015626 c 0,0.45703125 -0.1171875,0.45703125 -0.7851563,0.45703125 V -2.421875e-4 C 7.3660937,-0.01196094 7.87,-0.03539844 8.1395312,-0.03539844 c 0.2578125,0 0.7851563,0.0234375 1.1132813,0.0351562525 V -0.30492969 c -0.65625,0 -0.7734375,0 -0.7734375,-0.45703125 V -2.5900859 c 0,-1.03125 0.7148437,-1.59375 1.3476562,-1.59375 0.6210938,0 0.7382808,0.5390625 0.7382808,1.1015625 v 2.32031246 c 0,0.45703125 -0.117187,0.45703125 -0.773437,0.45703125 v 0.3046875025 c 0.339844,-0.0117187525 0.855469,-0.0351562525 1.125,-0.0351562525 0.257812,0 0.773437,0.0234375 1.113281,0.0351562525 V -0.30492969 c -0.515625,0 -0.773437,0 -0.785156,-0.3046875 V -2.5080547 c 0,-0.8554687 0,-1.171875 -0.304688,-1.5234375 -0.140625,-0.1757812 -0.46875,-0.375 -1.0429683,-0.375 -0.7265625,0 -1.1953125,0.4335938 -1.4765625,1.0546875 v -1.0546875 l -1.40625,0.1171875 v 0.3046875 c 0.703125,0 0.7851563,0.070312 0.7851563,0.5625 z m 0,0"
         style="fill:#000000;fill-opacity:1;fill-rule:nonzero;stroke:none" />
      <path
         id="path51"
         d="m 18.431523,-4.9807109 c 0,-0.65625 -0.1875,-2.0390625 -1.195312,-2.0390625 -1.382813,0 -2.917969,2.8007812 -2.917969,5.0859375 0,0.93749996 0.28125,2.03906246 1.195313,2.03906246 1.40625,0 2.917968,-2.85937496 2.917968,-5.08593746 z m -3.058593,1.359375 c 0.164062,-0.6328125 0.363281,-1.4296875 0.761718,-2.1328125 0.269532,-0.4921875 0.644532,-1.0546875 1.089844,-1.0546875 0.492188,0 0.550781,0.6445312 0.550781,1.2070312 0,0.4921875 -0.08203,0.9960938 -0.328125,1.9804688 z m 1.992187,0.328125 c -0.117187,0.4570312 -0.316406,1.3007812 -0.703125,2.015625 -0.339844,0.67968746 -0.726562,1.17187496 -1.148437,1.17187496 -0.328125,0 -0.539063,-0.29296875 -0.539063,-1.21874996 0,-0.421875 0.05859,-0.9960938 0.316406,-1.96875 z m 0,0"
         style="fill:#000000;fill-opacity:1;fill-rule:nonzero;stroke:none" />
    </g>
  </g>
</svg>
