<?xml version="1.0" encoding="UTF-8" standalone="no"?>
<svg
   viewBox="0 0 576 512"
   version="1.1"
   id="svg1"
   sodipodi:docname="bluesky-icon.svg"
   inkscape:version="1.4.2 (ebf0e940d0, 2025-05-08)"
   xmlns:inkscape="http://www.inkscape.org/namespaces/inkscape"
   xmlns:sodipodi="http://sodipodi.sourceforge.net/DTD/sodipodi-0.dtd"
   xmlns="http://www.w3.org/2000/svg"
   xmlns:svg="http://www.w3.org/2000/svg">
  <defs
     id="defs1" />
  <sodipodi:namedview
     id="namedview1"
     pagecolor="#ffffff"
     bordercolor="#000000"
     borderopacity="0.25"
     inkscape:showpageshadow="2"
     inkscape:pageopacity="0.0"
     inkscape:pagecheckerboard="0"
     inkscape:deskcolor="#d1d1d1"
     inkscape:zoom="1.5277778"
     inkscape:cx="288"
     inkscape:cy="255.92727"
     inkscape:window-width="1102"
     inkscape:window-height="1381"
     inkscape:window-x="0"
     inkscape:window-y="0"
     inkscape:window-maximized="0"
     inkscape:current-layer="svg1" />
  <!--!Font Awesome Free v7.0.1 by @fontawesome - https://fontawesome.com License - https://fontawesome.com/license/free Copyright 2025 Fonticons, Inc.-->
  <path
     d="M407.8 294.7c-3.3-.4-6.7-.8-10-1.3 3.4 .4 6.7 .9 10 1.3zM288 227.1C261.9 176.4 190.9 81.9 124.9 35.3 61.6-9.4 37.5-1.7 21.6 5.5 3.3 13.8 0 41.9 0 58.4S9.1 194 15 213.9c19.5 65.7 89.1 87.9 153.2 80.7 3.3-.5 6.6-.9 10-1.4-3.3 .5-6.6 1-10 1.4-93.9 14-177.3 48.2-67.9 169.9 120.3 124.6 164.8-26.7 187.7-103.4 22.9 76.7 49.2 222.5 185.6 103.4 102.4-103.4 28.1-156-65.8-169.9-3.3-.4-6.7-.8-10-1.3 3.4 .4 6.7 .9 10 1.3 64.1 7.1 133.6-15.1 153.2-80.7 5.9-19.9 15-138.9 15-155.5s-3.3-44.7-21.6-52.9c-15.8-7.1-40-14.9-103.2 29.8-66.1 46.6-137.1 141.1-163.2 191.8z"
     id="path1"
     style="fill:#107895;fill-opacity:1" />
</svg>
