<?xml version="1.0" encoding="UTF-8"?>
<svg xmlns="http://www.w3.org/2000/svg" xmlns:xlink="http://www.w3.org/1999/xlink" width="635.007753" height="428.10974" viewBox="0 0 635.007753 428.10974">
<defs>
<clipPath id="clip-0">
<path clip-rule="nonzero" d="M 162 28 L 179 28 L 179 428.109375 L 162 428.109375 Z M 162 28 "/>
</clipPath>
</defs>
<path fill-rule="evenodd" fill="rgb(62.35199%, 80.39093%, 94.508362%)" fill-opacity="0.501961" stroke-width="1.951658" stroke-linecap="butt" stroke-linejoin="miter" stroke="rgb(7.843018%, 53.33252%, 87.057495%)" stroke-opacity="0.996078" stroke-miterlimit="4" d="M 59.011719 132.695312 L 170.464844 406.929688 L 481.152344 315.234375 L 497.132812 310.515625 C 480.058594 288.421875 426.425781 243.042969 402.195312 234.699219 C 360.304688 220.28125 288.289062 217.878906 248.214844 164.8125 C 208.433594 112.136719 87.425781 66.515625 59.011719 132.695312 Z M 59.011719 132.695312 "/>
<path fill="none" stroke-width="1.561327" stroke-linecap="butt" stroke-linejoin="miter" stroke="rgb(50.195312%, 50.195312%, 50.195312%)" stroke-opacity="1" stroke-dasharray="3.122655 3.122655" stroke-miterlimit="4" d="M 170.128906 406.605469 L 29.464844 59.710938 "/>
<path fill="none" stroke-width="1.561327" stroke-linecap="butt" stroke-linejoin="miter" stroke="rgb(50.195312%, 50.195312%, 50.195312%)" stroke-opacity="1" stroke-dasharray="3.122655 3.122655" stroke-miterlimit="4" d="M 171.511719 406.152344 L 560.078125 291.765625 "/>
<path fill-rule="nonzero" fill="rgb(50.195312%, 50.195312%, 50.195312%)" fill-opacity="1" stroke-width="1.561327" stroke-linecap="butt" stroke-linejoin="miter" stroke="rgb(50.195312%, 50.195312%, 50.195312%)" stroke-opacity="1" stroke-miterlimit="4" d="M 176.386719 -406.664062 C 176.386719 -405.105469 175.765625 -403.609375 174.664062 -402.507812 C 173.5625 -401.40625 172.070312 -400.789062 170.511719 -400.789062 C 168.953125 -400.789062 167.460938 -401.40625 166.359375 -402.507812 C 165.257812 -403.609375 164.640625 -405.105469 164.640625 -406.664062 C 164.640625 -409.90625 167.269531 -412.535156 170.511719 -412.535156 C 173.753906 -412.535156 176.386719 -409.90625 176.386719 -406.664062 Z M 176.386719 -406.664062 " transform="matrix(1, 0, 0, -1, 0, 0)"/>
<path fill-rule="nonzero" fill="rgb(7.843018%, 53.33252%, 87.057495%)" fill-opacity="0.996078" d="M 280.441406 153.289062 C 281.195312 153.289062 281.636719 152.820312 281.636719 152.015625 C 281.636719 151.207031 281.144531 150.660156 280.414062 150.660156 C 278.175781 150.660156 276.09375 154.929688 275.546875 156.359375 L 276.925781 150.714844 L 276.847656 150.660156 C 274.949219 151 274.714844 151.050781 272.816406 151.363281 L 272.816406 151.804688 C 273.441406 151.675781 273.519531 151.675781 273.699219 151.675781 C 274.273438 151.675781 274.613281 151.9375 274.613281 152.40625 C 274.613281 152.925781 274.585938 153.105469 274.195312 154.539062 L 272.085938 162.136719 L 274.066406 162.136719 C 275.417969 157.714844 275.859375 156.59375 277.058594 154.617188 C 277.917969 153.160156 278.644531 152.351562 279.085938 152.351562 C 279.660156 152.351562 279.296875 153.289062 280.441406 153.289062 Z M 280.441406 153.289062 "/>
<path fill-rule="nonzero" fill="rgb(7.843018%, 53.33252%, 87.057495%)" fill-opacity="0.996078" d="M 296.46875 152.09375 L 283.355469 152.09375 L 283.355469 153.808594 L 296.46875 153.808594 Z M 296.46875 157.296875 L 283.355469 157.296875 L 283.355469 159.015625 L 296.46875 159.015625 Z M 296.46875 157.296875 "/>
<path fill-rule="nonzero" fill="rgb(7.843018%, 53.33252%, 87.057495%)" fill-opacity="0.996078" d="M 298.371094 165.859375 C 298.371094 165.3125 297.902344 164.867188 297.355469 164.867188 C 296.808594 164.867188 296.390625 165.335938 296.390625 165.9375 C 296.390625 166.820312 297.300781 167.523438 298.449219 167.523438 C 300.761719 167.523438 302.585938 164.945312 303.652344 160.160156 L 305.527344 151.832031 L 308.363281 151.832031 L 308.519531 151 L 305.707031 151 C 306.460938 146.914062 307.425781 145.066406 308.882812 145.066406 C 309.222656 145.066406 309.453125 145.195312 309.453125 145.378906 C 309.453125 145.5625 309.195312 145.792969 309.195312 146.183594 C 309.195312 146.808594 309.585938 147.226562 310.15625 147.226562 C 310.757812 147.226562 311.25 146.757812 311.25 146.183594 C 311.25 145.222656 310.289062 144.492188 309.011719 144.492188 C 305.835938 144.492188 304.5625 148.214844 303.703125 151 L 301.308594 151 L 301.128906 151.832031 L 303.46875 151.832031 L 301.179688 162.761719 C 300.605469 165.546875 299.75 166.976562 298.65625 166.976562 C 298.34375 166.976562 298.136719 166.792969 298.136719 166.558594 C 298.136719 166.300781 298.371094 166.25 298.371094 165.859375 Z M 298.371094 165.859375 "/>
<path fill-rule="nonzero" fill="rgb(7.843018%, 53.33252%, 87.057495%)" fill-opacity="0.996078" d="M 313.097656 166.847656 L 313.566406 166.691406 C 312.628906 164.0625 312.316406 162.421875 312.316406 159.925781 C 312.316406 156.800781 313.070312 153.054688 314.269531 150.167969 C 315.101562 148.109375 315.933594 146.886719 317.625 145.117188 L 317.289062 144.726562 C 315.257812 146.574219 310.523438 150.347656 310.523438 157.453125 C 310.523438 161.304688 311.355469 163.671875 313.097656 166.847656 Z M 313.097656 166.847656 "/>
<path fill-rule="nonzero" fill="rgb(7.843018%, 53.33252%, 87.057495%)" fill-opacity="0.996078" d="M 322.492188 162.421875 C 328.035156 162.421875 331.027344 154.355469 331.027344 149.777344 C 331.027344 147.199219 330.140625 144.648438 327.125 144.648438 C 321.527344 144.648438 318.746094 152.976562 318.746094 157.558594 C 318.746094 160.210938 320.332031 162.421875 322.492188 162.421875 Z M 328.292969 152.820312 L 321.839844 152.820312 C 322.441406 150.425781 323.84375 145.25 326.96875 145.25 C 328.683594 145.25 328.839844 146.964844 328.839844 148.34375 C 328.839844 149.90625 328.660156 151.335938 328.292969 152.820312 Z M 328.140625 153.445312 C 327.515625 155.996094 326.003906 161.824219 322.621094 161.824219 C 321.164062 161.824219 320.929688 160.132812 320.929688 158.726562 C 320.929688 156.90625 321.242188 155.1875 321.683594 153.445312 Z M 328.140625 153.445312 "/>
<path fill-rule="nonzero" fill="rgb(7.843018%, 53.33252%, 87.057495%)" fill-opacity="0.996078" d="M 336.648438 144.726562 L 336.152344 144.859375 C 337.039062 146.964844 337.429688 149.074219 337.429688 151.675781 C 337.429688 154.980469 336.542969 159.195312 335.242188 161.980469 C 334.488281 163.671875 333.707031 164.765625 332.121094 166.429688 L 332.457031 166.820312 C 336.621094 163.203125 339.222656 159.585938 339.222656 154.226562 C 339.222656 150.296875 338.261719 147.617188 336.648438 144.726562 Z M 336.648438 144.726562 "/>
<path fill-rule="nonzero" fill="rgb(7.843018%, 53.33252%, 87.057495%)" fill-opacity="0.996078" d="M 216.8125 290.125 C 220.734375 290.125 223.113281 286.171875 223.113281 282.109375 L 223.113281 259.640625 C 223.113281 255.929688 223.777344 252.394531 226.507812 252.394531 C 227.417969 252.394531 228.222656 252.675781 228.78125 253.132812 C 228.117188 253.203125 227.453125 253.691406 227.453125 254.601562 C 227.453125 255.582031 228.1875 256.035156 228.921875 256.035156 C 229.65625 256.035156 230.394531 255.582031 230.394531 254.601562 C 230.394531 252.675781 228.398438 251.625 226.507812 251.625 C 222.585938 251.625 220.207031 255.582031 220.207031 259.640625 L 220.207031 282.109375 C 220.207031 285.855469 219.542969 289.355469 216.8125 289.355469 C 215.902344 289.355469 215.097656 289.078125 214.539062 288.621094 C 215.203125 288.550781 215.867188 288.0625 215.867188 287.152344 C 215.867188 286.207031 215.132812 285.714844 214.398438 285.714844 C 213.664062 285.714844 212.929688 286.207031 212.929688 287.152344 C 212.929688 289.078125 214.921875 290.125 216.8125 290.125 Z M 216.8125 290.125 "/>
<path fill-rule="nonzero" fill="rgb(7.843018%, 53.33252%, 87.057495%)" fill-opacity="0.996078" d="M 239.3125 282.039062 C 239.3125 281.492188 238.84375 281.050781 238.296875 281.050781 C 237.75 281.050781 237.332031 281.519531 237.332031 282.117188 C 237.332031 283 238.242188 283.703125 239.390625 283.703125 C 241.703125 283.703125 243.527344 281.128906 244.59375 276.339844 L 246.46875 268.011719 L 249.304688 268.011719 L 249.460938 267.179688 L 246.648438 267.179688 C 247.402344 263.09375 248.367188 261.246094 249.824219 261.246094 C 250.160156 261.246094 250.394531 261.375 250.394531 261.558594 C 250.394531 261.742188 250.136719 261.976562 250.136719 262.367188 C 250.136719 262.992188 250.527344 263.40625 251.097656 263.40625 C 251.699219 263.40625 252.191406 262.9375 252.191406 262.367188 C 252.191406 261.402344 251.230469 260.675781 249.953125 260.675781 C 246.777344 260.675781 245.503906 264.394531 244.644531 267.179688 L 242.25 267.179688 L 242.070312 268.011719 L 244.410156 268.011719 L 242.121094 278.941406 C 241.546875 281.726562 240.691406 283.15625 239.597656 283.15625 C 239.285156 283.15625 239.078125 282.976562 239.078125 282.742188 C 239.078125 282.480469 239.3125 282.429688 239.3125 282.039062 Z M 239.3125 282.039062 "/>
<path fill-rule="nonzero" fill="rgb(7.843018%, 53.33252%, 87.057495%)" fill-opacity="0.996078" d="M 254.039062 283.027344 L 254.507812 282.871094 C 253.570312 280.242188 253.257812 278.601562 253.257812 276.105469 C 253.257812 272.984375 254.011719 269.234375 255.210938 266.347656 C 256.042969 264.292969 256.875 263.066406 258.566406 261.296875 L 258.230469 260.910156 C 256.199219 262.757812 251.464844 266.527344 251.464844 273.632812 C 251.464844 277.484375 252.296875 279.851562 254.039062 283.027344 Z M 254.039062 283.027344 "/>
<path fill-rule="nonzero" fill="rgb(7.843018%, 53.33252%, 87.057495%)" fill-opacity="0.996078" d="M 263.433594 278.601562 C 268.976562 278.601562 271.96875 270.535156 271.96875 265.957031 C 271.96875 263.378906 271.082031 260.832031 268.066406 260.832031 C 262.46875 260.832031 259.6875 269.15625 259.6875 273.738281 C 259.6875 276.390625 261.273438 278.601562 263.433594 278.601562 Z M 269.234375 269 L 262.78125 269 C 263.382812 266.605469 264.785156 261.429688 267.910156 261.429688 C 269.625 261.429688 269.78125 263.144531 269.78125 264.527344 C 269.78125 266.085938 269.601562 267.519531 269.234375 269 Z M 269.078125 269.625 C 268.457031 272.175781 266.945312 278.003906 263.5625 278.003906 C 262.105469 278.003906 261.871094 276.3125 261.871094 274.910156 C 261.871094 273.085938 262.183594 271.371094 262.625 269.625 Z M 269.078125 269.625 "/>
<path fill-rule="nonzero" fill="rgb(7.843018%, 53.33252%, 87.057495%)" fill-opacity="0.996078" d="M 277.589844 260.910156 L 277.09375 261.039062 C 277.980469 263.144531 278.371094 265.253906 278.371094 267.855469 C 278.371094 271.160156 277.484375 275.375 276.183594 278.160156 C 275.429688 279.851562 274.648438 280.945312 273.0625 282.609375 L 273.398438 283 C 277.5625 279.382812 280.164062 275.765625 280.164062 270.40625 C 280.164062 266.476562 279.203125 263.796875 277.589844 260.910156 Z M 277.589844 260.910156 "/>
<path fill-rule="nonzero" fill="rgb(7.843018%, 53.33252%, 87.057495%)" fill-opacity="0.996078" d="M 286.125 260.101562 L 286.460938 260.363281 C 287.21875 259.375 287.867188 259.007812 288.804688 259.007812 C 289.921875 259.007812 290.757812 259.710938 290.757812 260.675781 C 290.757812 261.507812 290.027344 262.730469 288.414062 264.292969 L 284.953125 267.675781 L 284.953125 268.144531 L 290.964844 268.144531 L 291.824219 266.085938 L 291.484375 265.878906 C 291.070312 266.582031 290.78125 266.761719 289.84375 266.761719 L 287.164062 266.761719 L 287.113281 266.632812 L 290.078125 263.769531 C 292.34375 261.585938 292.527344 261.066406 292.527344 260.152344 C 292.527344 258.722656 291.226562 257.527344 289.636719 257.527344 C 288.335938 257.527344 286.929688 258.203125 286.125 260.101562 Z M 286.125 260.101562 "/>
<path fill-rule="nonzero" fill="rgb(7.843018%, 53.33252%, 87.057495%)" fill-opacity="0.996078" d="M 307.75 275.429688 C 306.34375 277.042969 306.058594 277.277344 305.613281 277.277344 C 305.355469 277.277344 305.148438 277.042969 305.148438 276.757812 C 305.148438 276.390625 305.980469 273.21875 306.839844 270.355469 C 307.539062 267.960938 308.085938 265.878906 309.414062 260.675781 L 309.285156 260.542969 C 307.90625 260.832031 306.96875 260.988281 305.304688 261.144531 L 305.304688 261.585938 C 306.527344 261.585938 306.917969 261.871094 306.917969 262.261719 C 306.917969 262.496094 306.890625 262.757812 306.527344 264.082031 L 305.382812 268.351562 C 305.171875 267.257812 304.703125 266.839844 303.6875 266.839844 C 300.304688 266.839844 296.089844 271.734375 296.089844 275.636719 C 296.089844 277.484375 297.132812 278.601562 298.824219 278.601562 C 300.59375 278.601562 301.738281 277.769531 303.507812 275.167969 C 303.222656 276.496094 303.167969 276.886719 303.167969 277.484375 C 303.167969 278.1875 303.613281 278.65625 304.261719 278.65625 C 305.355469 278.65625 306.707031 277.589844 308.0625 275.6875 Z M 304.964844 268.921875 C 304.964844 272.878906 302.257812 277.355469 299.863281 277.355469 C 298.980469 277.355469 298.355469 276.652344 298.355469 275.636719 C 298.355469 272.410156 301.21875 267.441406 303.6875 267.441406 C 304.234375 267.441406 304.964844 267.648438 304.964844 268.921875 Z M 304.964844 268.921875 "/>
<path fill-rule="nonzero" fill="rgb(7.843018%, 53.33252%, 87.057495%)" fill-opacity="0.996078" d="M 313.03125 278.601562 C 318.574219 278.601562 321.566406 270.535156 321.566406 265.957031 C 321.566406 263.378906 320.683594 260.832031 317.664062 260.832031 C 312.070312 260.832031 309.285156 269.15625 309.285156 273.738281 C 309.285156 276.390625 310.871094 278.601562 313.03125 278.601562 Z M 318.835938 269 L 312.378906 269 C 312.980469 266.605469 314.382812 261.429688 317.507812 261.429688 C 319.226562 261.429688 319.378906 263.144531 319.378906 264.527344 C 319.378906 266.085938 319.199219 267.519531 318.835938 269 Z M 318.679688 269.625 C 318.054688 272.175781 316.542969 278.003906 313.160156 278.003906 C 311.703125 278.003906 311.46875 276.3125 311.46875 274.910156 C 311.46875 273.085938 311.78125 271.371094 312.226562 269.625 Z M 318.679688 269.625 "/>
<path fill-rule="nonzero" fill="rgb(50.195312%, 50.195312%, 50.195312%)" fill-opacity="1" d="M 47.652344 71.613281 C 53.195312 71.613281 56.1875 63.546875 56.1875 58.96875 C 56.1875 56.390625 55.300781 53.839844 52.285156 53.839844 C 46.6875 53.839844 43.902344 62.167969 43.902344 66.75 C 43.902344 69.402344 45.492188 71.613281 47.652344 71.613281 Z M 53.453125 62.011719 L 47 62.011719 C 47.597656 59.617188 49.003906 54.441406 52.128906 54.441406 C 53.84375 54.441406 54 56.15625 54 57.535156 C 54 59.097656 53.820312 60.527344 53.453125 62.011719 Z M 53.296875 62.636719 C 52.671875 65.1875 51.164062 71.015625 47.78125 71.015625 C 46.324219 71.015625 46.089844 69.324219 46.089844 67.917969 C 46.089844 66.097656 46.402344 64.378906 46.84375 62.636719 Z M 53.296875 62.636719 "/>
<path fill-rule="nonzero" fill="rgb(50.195312%, 50.195312%, 50.195312%)" fill-opacity="1" d="M 72.214844 61.285156 L 59.101562 61.285156 L 59.101562 63 L 72.214844 63 Z M 72.214844 66.488281 L 59.101562 66.488281 L 59.101562 68.207031 L 72.214844 68.207031 Z M 72.214844 66.488281 "/>
<path fill-rule="nonzero" fill="rgb(50.195312%, 50.195312%, 50.195312%)" fill-opacity="1" d="M 77.054688 54.597656 C 78.589844 54.648438 78.746094 54.726562 78.746094 55.296875 C 78.746094 55.636719 78.433594 56.730469 78.332031 57.09375 L 74.792969 70.132812 C 74.792969 70.859375 76.691406 71.613281 78.253906 71.613281 C 82.183594 71.613281 86.503906 67.0625 86.503906 62.976562 C 86.503906 61.152344 85.226562 59.851562 83.484375 59.851562 C 81.664062 59.851562 80.308594 60.917969 78.460938 63.78125 L 81.167969 53.683594 L 81.039062 53.554688 C 79.738281 53.789062 78.800781 53.945312 77.054688 54.152344 Z M 78.226562 71.015625 C 77.421875 71.015625 77.03125 70.730469 77.03125 70.132812 C 77.03125 68.074219 79.136719 61.128906 82.46875 61.128906 C 83.585938 61.128906 84.289062 61.984375 84.289062 63.367188 C 84.289062 65.109375 82.050781 71.015625 78.226562 71.015625 Z M 78.226562 71.015625 "/>
<path fill-rule="nonzero" fill="rgb(50.195312%, 50.195312%, 50.195312%)" fill-opacity="1" d="M 154.148438 5.257812 L 154.148438 5.703125 C 154.484375 5.625 154.667969 5.597656 154.953125 5.597656 C 156.4375 5.597656 156.828125 6.25 158.023438 10.722656 C 158.46875 12.414062 159.089844 15.460938 159.089844 15.902344 C 159.089844 16.890625 156.566406 20.039062 155.734375 20.039062 C 155.371094 20.039062 154.746094 19.3125 154.148438 19.3125 C 153.574219 19.3125 153.132812 19.753906 153.132812 20.328125 C 153.132812 20.976562 153.703125 21.472656 154.460938 21.472656 C 157.582031 21.472656 164.84375 9.398438 164.84375 6.066406 C 164.84375 5.285156 164.191406 4.636719 163.410156 4.636719 C 162.8125 4.636719 162.394531 5.023438 162.394531 5.597656 C 162.394531 6.664062 163.800781 6.535156 163.800781 7.496094 C 163.800781 8.539062 162.839844 10.566406 160.625 14.238281 L 160.105469 11.21875 C 159.714844 8.929688 158.257812 4.636719 157.867188 4.636719 C 157.007812 4.714844 156.671875 4.792969 154.148438 5.257812 Z M 154.148438 5.257812 "/>
<path fill-rule="nonzero" fill="rgb(50.195312%, 50.195312%, 50.195312%)" fill-opacity="1" d="M 628.472656 416.503906 C 628.082031 416.503906 627.847656 416.167969 627.664062 415.4375 C 627.402344 414.421875 626.625 411.300781 626.625 410.78125 C 627.769531 408.777344 628.707031 407.632812 629.171875 407.632812 C 629.640625 407.632812 629.980469 408.074219 630.5 408.074219 C 631.046875 408.074219 631.410156 407.683594 631.410156 407.136719 C 631.410156 406.589844 630.96875 406.175781 630.34375 406.175781 C 629.199219 406.175781 628.210938 407.109375 626.414062 409.894531 L 626.128906 408.464844 C 625.765625 406.695312 625.476562 406.175781 624.777344 406.175781 C 624.203125 406.175781 623.320312 406.410156 621.730469 406.929688 L 621.445312 407.03125 L 621.550781 407.421875 C 622.539062 407.1875 622.773438 407.136719 623.007812 407.136719 C 623.65625 407.136719 623.8125 407.371094 624.175781 408.933594 L 624.933594 412.132812 L 622.796875 415.175781 C 622.25 415.957031 621.757812 416.425781 621.472656 416.425781 C 621.003906 416.425781 620.558594 415.933594 619.960938 415.933594 C 619.46875 415.933594 619.078125 416.324219 619.078125 416.84375 C 619.078125 417.519531 619.597656 417.9375 620.378906 417.9375 C 621.316406 417.9375 621.886719 417.570312 625.140625 413.070312 L 625.921875 416.191406 C 626.257812 417.519531 626.597656 417.9375 627.429688 417.9375 C 628.417969 417.9375 629.09375 417.3125 630.605469 414.96875 L 630.242188 414.761719 C 628.964844 416.191406 628.9375 416.503906 628.472656 416.503906 Z M 628.472656 416.503906 "/>
<path fill-rule="nonzero" fill="rgb(50.195312%, 50.195312%, 50.195312%)" fill-opacity="1" d="M 548.996094 284.90625 C 554.539062 284.90625 557.53125 276.839844 557.53125 272.257812 C 557.53125 269.683594 556.644531 267.132812 553.628906 267.132812 C 548.03125 267.132812 545.25 275.460938 545.25 280.039062 C 545.25 282.695312 546.835938 284.90625 548.996094 284.90625 Z M 554.796875 275.304688 L 548.34375 275.304688 C 548.941406 272.910156 550.347656 267.730469 553.472656 267.730469 C 555.1875 267.730469 555.34375 269.449219 555.34375 270.828125 C 555.34375 272.390625 555.164062 273.820312 554.796875 275.304688 Z M 554.640625 275.929688 C 554.019531 278.480469 552.507812 284.308594 549.125 284.308594 C 547.667969 284.308594 547.433594 282.617188 547.433594 281.210938 C 547.433594 279.390625 547.746094 277.671875 548.1875 275.929688 Z M 554.640625 275.929688 "/>
<path fill-rule="nonzero" fill="rgb(50.195312%, 50.195312%, 50.195312%)" fill-opacity="1" d="M 573.558594 274.574219 L 560.445312 274.574219 L 560.445312 276.292969 L 573.558594 276.292969 Z M 573.558594 279.78125 L 560.445312 279.78125 L 560.445312 281.496094 L 573.558594 281.496094 Z M 573.558594 279.78125 "/>
<path fill-rule="nonzero" fill="rgb(50.195312%, 50.195312%, 50.195312%)" fill-opacity="1" d="M 585.476562 283.554688 C 585.269531 283.554688 585.113281 283.398438 585.113281 283.214844 C 585.113281 282.695312 586.207031 278.246094 587.429688 273.769531 C 587.507812 273.507812 587.535156 273.457031 587.585938 273.222656 L 587.402344 273.144531 L 585.816406 273.328125 L 585.738281 273.40625 L 585.453125 274.652344 C 585.242188 273.691406 584.488281 273.144531 583.371094 273.144531 C 579.9375 273.144531 575.929688 277.90625 575.929688 282.019531 C 575.929688 283.839844 576.917969 284.90625 578.582031 284.90625 C 580.402344 284.90625 581.523438 284.046875 583.8125 280.820312 C 583.292969 282.851562 583.214844 283.1875 583.214844 283.8125 C 583.214844 284.566406 583.527344 284.878906 584.253906 284.878906 C 585.296875 284.878906 585.945312 284.386719 587.871094 282.019531 L 587.558594 281.757812 C 586.675781 282.640625 585.867188 283.554688 585.476562 283.554688 Z M 584.984375 275.304688 C 584.984375 278.503906 582.171875 283.632812 579.625 283.632812 C 578.710938 283.632812 578.113281 282.875 578.113281 281.679688 C 578.113281 279.9375 580.273438 273.71875 583.398438 273.71875 C 584.359375 273.71875 584.984375 274.339844 584.984375 275.304688 Z M 584.984375 275.304688 "/>
<path fill="none" stroke-width="1.399572" stroke-linecap="butt" stroke-linejoin="miter" stroke="rgb(50.195312%, 50.195312%, 50.195312%)" stroke-opacity="1" stroke-miterlimit="4" d="M 12.722656 407.113281 C 597.15625 407.113281 597.15625 407.113281 597.15625 407.113281 "/>
<path fill-rule="evenodd" fill="rgb(50.195312%, 50.195312%, 50.195312%)" fill-opacity="1" d="M 14.679688 411.03125 L 3.902344 407.113281 L 14.679688 403.195312 C 12.722656 405.476562 12.722656 408.742188 14.679688 411.03125 Z M 14.679688 411.03125 "/>
<path fill-rule="evenodd" fill="rgb(50.195312%, 50.195312%, 50.195312%)" fill-opacity="1" d="M 595.199219 403.195312 L 605.972656 407.113281 L 595.199219 411.03125 C 597.15625 408.75 597.15625 405.488281 595.199219 403.195312 Z M 595.199219 403.195312 "/>
<g clip-path="url(#clip-0)">
<path fill="none" stroke-width="1.456847" stroke-linecap="butt" stroke-linejoin="miter" stroke="rgb(50.195312%, 50.195312%, 50.195312%)" stroke-opacity="1" stroke-miterlimit="4" d="M -687.893756 170.625 C -54.637896 170.625 -54.637896 170.625 -54.637896 170.625 " transform="matrix(0, -0.619276, 1, 0, 0, 0)"/>
</g>
<path fill-rule="evenodd" fill="rgb(50.195312%, 50.195312%, 50.195312%)" fill-opacity="1" d="M 166.546875 35.101562 L 170.625 28.152344 L 174.703125 35.101562 C 172.328125 33.835938 168.933594 33.835938 166.546875 35.101562 Z M 166.546875 35.101562 "/>
<path fill-rule="nonzero" fill="rgb(7.843018%, 53.33252%, 87.057495%)" fill-opacity="0.996078" d="M 231.792969 292.070312 C 231.679688 292.070312 231.597656 291.988281 231.597656 291.890625 C 231.597656 291.609375 232.183594 289.214844 232.84375 286.808594 C 232.886719 286.667969 232.898438 286.640625 232.925781 286.511719 L 232.828125 286.472656 L 231.976562 286.570312 L 231.933594 286.609375 L 231.78125 287.28125 C 231.667969 286.765625 231.261719 286.472656 230.660156 286.472656 C 228.8125 286.472656 226.65625 289.03125 226.65625 291.246094 C 226.65625 292.226562 227.1875 292.800781 228.082031 292.800781 C 229.0625 292.800781 229.664062 292.335938 230.898438 290.601562 C 230.617188 291.691406 230.574219 291.875 230.574219 292.210938 C 230.574219 292.617188 230.742188 292.785156 231.136719 292.785156 C 231.695312 292.785156 232.046875 292.519531 233.082031 291.246094 L 232.914062 291.105469 C 232.4375 291.582031 232.003906 292.070312 231.792969 292.070312 Z M 231.527344 287.632812 C 231.527344 289.355469 230.015625 292.113281 228.644531 292.113281 C 228.152344 292.113281 227.832031 291.707031 227.832031 291.0625 C 227.832031 290.125 228.992188 286.777344 230.671875 286.777344 C 231.191406 286.777344 231.527344 287.113281 231.527344 287.632812 Z M 231.527344 287.632812 "/>
<path fill-rule="nonzero" fill="rgb(7.843018%, 53.33252%, 87.057495%)" fill-opacity="0.996078" d="M 233.46875 248.460938 C 234.292969 248.488281 234.375 248.53125 234.375 248.839844 C 234.375 249.023438 234.207031 249.609375 234.152344 249.804688 L 232.25 256.820312 C 232.25 257.210938 233.269531 257.617188 234.109375 257.617188 C 236.226562 257.617188 238.550781 255.167969 238.550781 252.96875 C 238.550781 251.988281 237.863281 251.289062 236.925781 251.289062 C 235.945312 251.289062 235.21875 251.863281 234.222656 253.402344 L 235.679688 247.972656 L 235.609375 247.902344 C 234.910156 248.027344 234.40625 248.113281 233.46875 248.222656 Z M 234.097656 257.296875 C 233.664062 257.296875 233.453125 257.140625 233.453125 256.820312 C 233.453125 255.714844 234.585938 251.976562 236.378906 251.976562 C 236.980469 251.976562 237.359375 252.4375 237.359375 253.179688 C 237.359375 254.117188 236.15625 257.296875 234.097656 257.296875 Z M 234.097656 257.296875 "/>
<path fill-rule="nonzero" fill="rgb(7.843018%, 53.33252%, 87.057495%)" fill-opacity="0.996078" d="M 198.457031 267.539062 L 203.480469 267.539062 L 203.480469 267.269531 L 203.191406 267.269531 C 202.3125 267.269531 201.933594 267.089844 201.933594 266.695312 C 201.933594 266.386719 202.222656 265.578125 202.257812 265.363281 L 204.832031 256.019531 C 204.902344 255.75 204.9375 255.585938 204.9375 255.496094 C 204.9375 255.425781 204.902344 255.371094 204.847656 255.371094 L 201.753906 255.984375 C 201.71875 255.984375 201.574219 256.019531 201.375 256.054688 L 201.375 256.324219 L 202.402344 256.289062 C 202.417969 256.289062 202.4375 256.289062 202.4375 256.289062 C 202.832031 256.289062 203.085938 256.523438 203.085938 256.847656 C 203.085938 256.957031 203.050781 257.136719 202.957031 257.460938 L 200.476562 266.316406 C 200.292969 266.980469 199.878906 267.160156 198.457031 267.289062 Z M 198.457031 267.539062 "/>
<path fill-rule="nonzero" fill="rgb(7.843018%, 53.33252%, 87.057495%)" fill-opacity="0.996078" d="M 199.015625 277.769531 L 199.394531 277.894531 C 200.0625 276.722656 200.835938 276.203125 201.914062 276.203125 C 203.191406 276.203125 204.164062 277.136719 204.164062 278.398438 C 204.164062 279.261719 203.695312 280.46875 201.574219 282.71875 L 197.792969 286.75 L 197.792969 287.054688 L 204.183594 287.054688 L 205.082031 284.679688 L 204.777344 284.554688 C 204.34375 285.453125 203.96875 285.6875 202.996094 285.6875 L 199.574219 285.6875 L 199.574219 285.597656 L 203.03125 282.140625 C 205.136719 280.035156 205.710938 279.136719 205.710938 277.949219 C 205.710938 276.21875 204.433594 274.886719 202.796875 274.886719 C 201.375 274.886719 199.917969 275.535156 199.015625 277.769531 Z M 199.015625 277.769531 "/>
<path fill="none" stroke-width="1.125" stroke-linecap="butt" stroke-linejoin="miter" stroke="rgb(7.843018%, 52.940369%, 86.665344%)" stroke-opacity="1" stroke-miterlimit="4" d="M 196.691406 271.582031 C 206.527344 271.582031 206.527344 271.582031 206.527344 271.582031 "/>
</svg>
