<?xml version="1.0" encoding="UTF-8" standalone="no"?>
<!-- Created with Inkscape (http://www.inkscape.org/) -->

<svg
   width="846.677"
   height="570.81299"
   id="svg2"
   sodipodi:version="0.32"
   inkscape:version="1.2.2 (b0a8486541, 2022-12-01)"
   sodipodi:docname="suma-riemann-polares.svg"
   version="1.0"
   xml:space="preserve"
   viewBox="0 0 846.677 570.81299"
   xmlns:inkscape="http://www.inkscape.org/namespaces/inkscape"
   xmlns:sodipodi="http://sodipodi.sourceforge.net/DTD/sodipodi-0.dtd"
   xmlns="http://www.w3.org/2000/svg"
   xmlns:svg="http://www.w3.org/2000/svg"
   xmlns:rdf="http://www.w3.org/1999/02/22-rdf-syntax-ns#"
   xmlns:cc="http://creativecommons.org/ns#"
   xmlns:dc="http://purl.org/dc/elements/1.1/"><defs
     id="defs4"><marker
       style="overflow:visible"
       id="marker4066"
       refX="0"
       refY="0"
       orient="auto-start-reverse"
       inkscape:stockid="Arrow2"
       markerWidth="7.6999998"
       markerHeight="5.5999999"
       viewBox="0 0 7.7 5.6"
       inkscape:isstock="true"
       inkscape:collect="always"
       preserveAspectRatio="xMidYMid"><path
         transform="scale(0.7)"
         d="M -2,-4 9,0 -2,4 c 2,-2.33 2,-5.66 0,-8 z"
         style="fill:context-stroke;fill-rule:evenodd;stroke:none"
         id="path4064" /></marker><marker
       style="overflow:visible"
       id="Arrow2"
       refX="0"
       refY="0"
       orient="auto-start-reverse"
       inkscape:stockid="Arrow2"
       markerWidth="7.6999998"
       markerHeight="5.5999999"
       viewBox="0 0 7.7 5.6"
       inkscape:isstock="true"
       inkscape:collect="always"
       preserveAspectRatio="xMidYMid"><path
         transform="scale(0.7)"
         d="M -2,-4 9,0 -2,4 c 2,-2.33 2,-5.66 0,-8 z"
         style="fill:context-stroke;fill-rule:evenodd;stroke:none"
         id="arrow2L" /></marker><clipPath
       clipPathUnits="userSpaceOnUse"
       id="clipPath8924"><path
         d="M 0,0 V 170.08086 H 212.60106 V 0 Z"
         id="path8922" /></clipPath><clipPath
       clipPathUnits="userSpaceOnUse"
       id="clipPath9008"><path
         d="M 0,0 V 170.08086 H 212.60106 V 0 Z"
         id="path9006" /></clipPath><clipPath
       clipPathUnits="userSpaceOnUse"
       id="clipPath9020"><path
         d="m 28.3468,0 v 90.7097 l 0.44162,0.88323 0.44162,0.88281 0.44119,0.88238 0.44205,0.88195 0.44162,0.88107 0.44162,0.87979 0.44162,0.87891 0.44119,0.87676 0.44162,0.87545 0.44164,0.87373 0.44161,0.87157 0.44161,0.86895 0.44162,0.86639 0.44164,0.86377 0.44162,0.86076 0.44162,0.8573 0.44119,0.85425 0.4416,0.85037 0.44162,0.84691 0.44164,0.84257 0.44162,0.8387 0.44162,0.83394 0.44162,0.82961 0.44162,0.82441 0.44162,0.81966 0.44162,0.81447 0.44119,0.80885 0.44162,0.80322 0.44206,0.79804 0.44161,0.79111 0.44119,0.78549 0.44162,0.77899 0.44162,0.77252 0.44164,0.76558 0.44162,0.75826 0.44162,0.75175 0.4416,0.74438 0.44163,0.73662 0.44163,0.72882 0.44162,0.72149 0.44119,0.71281 0.44162,0.70505 0.44162,0.69681 0.44162,0.68772 0.44162,0.67954 0.44162,0.67042 0.44162,0.66137 0.44164,0.65225 0.44161,0.64276 0.44119,0.63365 0.44161,0.62331 0.44162,0.61375 0.44163,0.60426 0.44205,0.59387 0.44119,0.5835 0.44162,0.57312 0.44164,0.56273 0.4416,0.55193 0.44162,0.54109 0.44162,0.52988 0.44164,0.51902 0.44162,0.50824 0.44162,0.49656 0.44119,0.4853 0.44161,0.47321 0.44162,0.46192 0.44163,0.4503 0.44162,0.43815 0.44162,0.42648 0.44162,0.41394 0.44162,0.40225 0.44162,0.38973 0.44162,0.37718 0.44119,0.36505 0.44162,0.35208 0.44162,0.33956 0.44164,0.32657 0.4416,0.31401 0.44162,0.30105 0.44162,0.2885 0.44164,0.27509 0.44162,0.26213 0.44119,0.2487 0.44162,0.23573 0.44205,0.22234 0.44162,0.20891 0.44162,0.19551 0.44119,0.18208 0.44162,0.1687 0.44162,0.15529 0.44162,0.14143 0.44162,0.12804 0.44162,0.11418 0.44162,0.10079 0.44163,0.0869 0.44162,0.0735 0.44162,0.0593 0.44118,0.0459 0.44162,0.032 0.44164,0.0186 0.44162,0.005 0.44162,-0.009 0.44162,-0.0233 0.44163,-0.0363 0.4416,-0.0506 0.44162,-0.064 0.4412,-0.0779 0.44162,-0.0917 0.44162,-0.1051 0.44206,-0.11851 0.4416,-0.1328 0.4412,-0.14575 0.44162,-0.15962 0.44163,-0.17301 0.44162,-0.18686 0.44162,-0.19983 0.44162,-0.21367 0.44162,-0.22622 0.44162,-0.2405 0.44162,-0.25302 0.44119,-0.26645 0.44162,-0.27899 0.44162,-0.29283 0.44164,-0.30493 0.44161,-0.31835 0.44161,-0.33133 0.44162,-0.34387 0.44164,-0.35641 0.44162,-0.36852 0.44161,-0.3815 0.4412,-0.39404 0.4416,-0.40572 0.44162,-0.41827 0.44164,-0.43036 0.44204,-0.44206 0.4412,-0.45418 0.44162,-0.46583 0.44162,-0.47753 0.44162,-0.48877 0.44119,-0.50042 0.44205,-0.51171 0.44163,-0.52293 0.44162,-0.53376 0.44162,-0.54457 0.44118,-0.55537 0.44162,-0.56619 0.44163,-0.57659 0.44163,-0.58694 0.44162,-0.59691 0.44162,-0.60727 0.44163,-0.61723 0.4416,-0.62676 0.44163,-0.6367 0.44119,-0.64577 0.44162,-0.6553 0.44162,-0.66481 0.44164,-0.67302 0.44161,-0.68254 0.44161,-0.69078 0.44162,-0.69898 0.44163,-0.70805 0.44162,-0.71587 0.44162,-0.72363 0.44119,-0.73143 0.44162,-0.73919 0.44205,-0.747 0.44162,-0.75348 0.44162,-0.76128 0.44119,-0.76774 0.44162,-0.77468 0.44164,-0.78072 0.4416,-0.78767 0.44162,-0.79327 0.44162,-0.79976 0.44164,-0.80496 0.44162,-0.81101 0.44162,-0.81619 0.44119,-0.82139 0.44161,-0.82616 0.44162,-0.83089 0.44163,-0.83566 0.44162,-0.84 0.44162,-0.84388 0.44162,-0.84776 0.44162,-0.85212 0.44162,-0.85512 0.44162,-0.85859 0.44119,-0.86161 0.44162,-0.86465 0.44164,-0.86768 0.44203,-0.86983 0.44119,-0.87199 0.44162,-0.87416 0.44164,-0.87588 0.44162,-0.87806 0.44162,-0.87891 0.44119,-0.88023 0.44205,-0.88107 0.44162,-0.88238 V 4.2e-4"
         id="path9018" /></clipPath><clipPath
       clipPathUnits="userSpaceOnUse"
       id="clipPath9026"><path
         d="M 28.3468,170.08086 V 85.04042 l 0.44162,-1.97195 0.44162,-1.94037 0.44119,-1.91051 0.44205,-1.87981 0.44162,-1.84953 0.44162,-1.81926 0.44162,-1.78899 0.44119,-1.75955 0.44162,-1.73015 0.44164,-1.70031 0.44161,-1.67089 0.44161,-1.64148 0.44162,-1.61294 0.44164,-1.58394 0.44162,-1.55544 0.44162,-1.52641 0.44119,-1.49832 0.4416,-1.46976 0.44162,-1.44207 0.44164,-1.4144 0.44162,-1.38587 0.44162,-1.35902 0.44162,-1.33136 0.44162,-1.30409 0.44162,-1.27686 0.44162,-1.25004 0.44119,-1.22321 0.44162,-1.19684 0.44206,-1.17 0.44161,-1.14363 0.44119,-1.11812 0.44162,-1.09172 0.44162,-1.0662 0.44164,-1.04026 0.44162,-1.01474 0.44162,-0.98921 0.4416,-0.96455 0.44163,-0.93949 0.44163,-0.91438 0.44162,-0.88972 0.44119,-0.86551 0.44162,-0.84085 0.44162,-0.81664 0.44162,-0.7924 0.44162,-0.76863 0.44162,-0.74526 0.44162,-0.72148 0.44164,-0.69812 0.44161,-0.67476 0.44119,-0.65184 0.44161,-0.62891 0.44162,-0.60597 0.44163,-0.58392 0.44205,-0.56102 0.44119,-0.5385 0.44162,-0.51646 0.44164,-0.49524 0.4416,-0.47278 0.44162,-0.45113 0.44162,-0.42994 0.44164,-0.40876 0.44162,-0.38711 0.44162,-0.36636 0.44119,-0.34562 0.44161,-0.32482 0.44162,-0.30407 0.44163,-0.28418 0.44162,-0.26384 0.44162,-0.24397 0.44162,-0.22404 0.44162,-0.20417 0.44162,-0.18467 0.44162,-0.16524 0.44119,-0.1462 0.44162,-0.12716 0.44162,-0.10816 0.44164,-0.0891 0.4416,-0.07092 0.44162,-0.05235 0.44162,-0.03416 0.44164,-0.01599 0.44162,0.0017 0.44119,0.01949 0.44162,0.03761 0.44205,0.05451 0.44162,0.07223 0.44162,0.08911 0.44119,0.10597 0.44162,0.12284 0.44162,0.13971 0.44162,0.15614 0.44162,0.17259 0.44162,0.18859 0.44162,0.20416 0.44163,0.2206 0.44162,0.23616 0.44162,0.25174 0.44118,0.26687 0.44162,0.28202 0.44164,0.29758 0.44162,0.31185 0.44162,0.327 0.44162,0.34129 0.44163,0.35555 0.4416,0.37023 0.44162,0.3841 0.4412,0.39793 0.44162,0.41179 0.44162,0.4256 0.44206,0.4386 0.4416,0.45244 0.4412,0.46498 0.44162,0.47838 0.44163,0.49093 0.44162,0.50348 0.44162,0.51601 0.44162,0.52814 0.44162,0.54066 0.44162,0.55235 0.44162,0.56447 0.44119,0.57614 0.44162,0.58695 0.44162,0.59907 0.44164,0.61031 0.44161,0.6207 0.44161,0.63194 0.44162,0.64274 0.44164,0.65314 0.44162,0.6635 0.44161,0.6739 0.4412,0.68386 0.4416,0.69334 0.44162,0.70373 0.44164,0.71284 0.44204,0.72277 0.4412,0.73142 0.44162,0.74094 0.44162,0.74958 0.44162,0.75867 0.44119,0.76689 0.44205,0.77554 0.44163,0.78375 0.44162,0.79198 0.44162,0.80021 0.44118,0.80798 0.44162,0.81491 0.44163,0.8231 0.44163,0.83005 0.44162,0.83739 0.44162,0.84476 0.44163,0.85122 0.4416,0.85772 0.44163,0.86465 0.44119,0.8707 0.44162,0.87719 0.44162,0.8828 0.44164,0.88887 0.44161,0.89491 0.44161,0.90012 0.44162,0.9053 0.44163,0.91137 0.44162,0.91567 0.44162,0.92087 0.44119,0.92565 0.44162,0.92996 0.44205,0.93471 0.44162,0.93904 0.44162,0.94293 0.44119,0.94682 0.44162,0.95072 0.44164,0.9546 0.4416,0.95766 0.44162,0.96111 0.44162,0.96453 0.44164,0.96715 0.44162,0.9702 0.44162,0.97278 0.44119,0.97494 0.44161,0.97796 0.44162,0.9797 0.44163,0.98187 0.44162,0.98359 0.44162,0.98531 0.44162,0.98707 0.44162,0.98834 0.44162,0.98964 0.44162,0.99052 0.44119,0.99137 0.44162,0.99225 0.44164,0.99267 0.44203,0.99312 0.44119,0.99353 0.44162,0.99353 0.44164,0.99355 0.44162,0.99353 0.44162,0.99267 0.44119,0.99225 0.44205,0.99181 0.44162,0.99052 v 78.66959"
         id="path9024" /></clipPath><clipPath
       clipPathUnits="userSpaceOnUse"
       id="clipPath9038"><path
         d="m 116.22208,0 v 91.41127 l 0.41264,0.92606 0.41351,0.92477 0.41307,0.92346 0.41307,0.92261 0.41309,0.92087 0.41306,0.91958 0.41307,0.91741 0.41308,0.91612 0.41307,0.91395 0.41307,0.91178 0.41309,0.90964 0.41306,0.90745 0.41308,0.90445 0.41307,0.90227 0.41307,0.89969 0.41352,0.89665 0.41264,0.89317 0.41306,0.89061 0.41308,0.88713 0.41352,0.88367 0.41306,0.88023 0.41265,0.87632 0.41349,0.87284 0.41308,0.869 0.41307,0.86463 0.41308,0.86075 0.41307,0.85599 0.41309,0.85167 0.41305,0.84691 0.41308,0.84259 0.41308,0.83783 0.41307,0.83263 0.41307,0.82743 0.41309,0.82227 0.41305,0.81706 0.41309,0.81144 0.4135,0.8054 0.41264,0.80018 0.41309,0.79413 0.41307,0.78766 0.4135,0.78247 0.41307,0.77554 0.41264,0.76906 0.41352,0.76212 0.41306,0.75608 0.41307,0.74915 0.41307,0.74223 0.41308,0.73488 0.41308,0.72797 0.41307,0.72018 0.41309,0.71282 0.41305,0.70546 0.41307,0.6977 0.41309,0.6899 0.41307,0.68124 0.41307,0.67389 0.41309,0.66526 0.4135,0.65701 0.41264,0.64837 0.41307,0.63973 0.41307,0.63107 0.41351,0.62157 0.41307,0.6129 0.41263,0.60382 0.41352,0.5943 0.41308,0.58479 0.41307,0.57572 0.41265,0.56532 0.41351,0.55582 0.41305,0.54586 0.41307,0.53591 0.41309,0.5251 0.41307,0.51517 0.41309,0.50433 0.41307,0.49396 0.41305,0.48313 0.41309,0.47234 0.41307,0.46108 0.41351,0.45028 0.41265,0.43859 0.41307,0.42735 0.41305,0.41566 0.41352,0.404 0.41308,0.39232 0.41265,0.3802 0.41349,0.36808 0.41307,0.35598 0.41308,0.34386 0.41264,0.3309 0.41351,0.31834 0.41307,0.3058 0.41309,0.29285 0.41305,0.28027 0.41307,0.26645 0.41309,0.25347 0.41307,0.24005 0.41307,0.22621 0.41309,0.21282 0.41305,0.19941 0.41352,0.18468 0.41264,0.17128 0.41307,0.15703 0.41351,0.1423 0.41307,0.12846 0.41307,0.11333 0.41265,0.0986 0.41351,0.0839 0.41307,0.0692 0.41307,0.0536 0.41307,0.0385 0.41307,0.0234 0.41308,0.008 0.41308,-0.008 0.41307,-0.0238 0.41309,-0.0394 0.41306,-0.0558 0.41306,-0.0718 0.41309,-0.0882 0.41307,-0.10468 0.41307,-0.12111 0.41351,-0.13755 0.41263,-0.15485 0.41309,-0.17172 0.4135,-0.18858 0.41308,-0.20588 0.41265,-0.22319 0.41307,-0.24092 0.41349,-0.25822 0.41307,-0.27642 0.41309,-0.29368 0.41307,-0.31229 0.41307,-0.33003 0.41309,-0.34819 0.41305,-0.36722 0.41307,-0.38496 0.41309,-0.404 0.41307,-0.42301 0.41309,-0.44162 0.41307,-0.46109 0.41306,-0.47969 0.41308,-0.49958 0.41351,-0.51861 0.41263,-0.5385 0.41308,-0.55798 0.4135,-0.57831 0.41307,-0.59777 0.41265,-0.61808 0.41307,-0.63845 0.41351,-0.65832 0.41307,-0.67951 0.41307,-0.69984 0.41307,-0.72061 0.41309,-0.74138 0.41307,-0.76256 0.41307,-0.78375 0.41309,-0.80496 0.41305,-0.82658 0.41307,-0.84777 0.41309,-0.86984 0.41307,-0.89147 0.41309,-0.91351 0.41307,-0.93602 0.41349,-0.95763 0.41265,-0.98013 0.41307,-1.00263 0.41351,-1.02511 0.41307,-1.04805 0.41264,-1.07095 0.41306,-1.09391 0.41351,-1.11723 0.41309,-1.14018 0.41307,-1.16396 0.41307,-1.18687 0.41307,-1.21111 0.41307,-1.23446 0.41309,-1.25913 0.41307,-1.28247 0.41307,-1.30668 0.41309,-1.33136 0.41305,-1.35558 0.41307,-1.38022 0.41309,-1.40532 0.41307,-1.42998 0.41307,-1.45463 0.41309,-1.48013 0.41305,-1.50524 0.41351,-1.53032 0.41307,-1.55627 0.41265,-1.58179 0.41308,-1.60731 0.41352,-1.63327 0.41305,-1.65964 0.41307,-1.68559 0.41309,-1.71199 0.41307,-1.73838 0.41307,-1.76518 0.41309,-1.79114 0.41305,-1.81883 0.41309,-1.8452 V 4e-4"
         id="path9036" /></clipPath><clipPath
       clipPathUnits="userSpaceOnUse"
       id="clipPath9044"><path
         d="M 116.22208,170.08086 V 93.06702 l 0.41264,-0.8257 0.41351,-0.82616 0.41307,-0.82571 0.41307,-0.82657 0.41309,-0.82573 0.41306,-0.82572 0.41307,-0.82484 0.41308,-0.82442 0.41307,-0.82354 0.41307,-0.82227 0.41309,-0.82096 0.41306,-0.81922 0.41308,-0.81836 0.41307,-0.81621 0.41307,-0.81447 0.41352,-0.81231 0.41264,-0.8097 0.41306,-0.80713 0.41308,-0.80493 0.41352,-0.80237 0.41306,-0.79846 0.41265,-0.79631 0.41349,-0.7924 0.41308,-0.78896 0.41307,-0.78549 0.41308,-0.78158 0.41307,-0.77772 0.41309,-0.77337 0.41305,-0.76949 0.41308,-0.76429 0.41308,-0.75997 0.41307,-0.75564 0.41307,-0.75002 0.41309,-0.74527 0.41305,-0.73964 0.41309,-0.73445 0.4135,-0.72882 0.41264,-0.72321 0.41309,-0.71714 0.41307,-0.71109 0.4135,-0.70504 0.41307,-0.69854 0.41264,-0.69208 0.41352,-0.68556 0.41306,-0.67867 0.41307,-0.67128 0.41307,-0.66481 0.41308,-0.65747 0.41308,-0.6501 0.41307,-0.64276 0.41309,-0.63495 0.41305,-0.62676 0.41307,-0.6194 0.41309,-0.61116 0.41307,-0.60298 0.41307,-0.59472 0.41309,-0.5861 0.4135,-0.5783 0.41264,-0.56877 0.41307,-0.56058 0.41307,-0.55105 0.41351,-0.54241 0.41307,-0.53333 0.41263,-0.5238 0.41352,-0.51471 0.41308,-0.50522 0.41307,-0.49566 0.41265,-0.48575 0.41351,-0.47623 0.41305,-0.46628 0.41307,-0.4559 0.41309,-0.44638 0.41307,-0.43599 0.41309,-0.42563 0.41307,-0.41522 0.41305,-0.40486 0.41309,-0.39447 0.41307,-0.38367 0.41351,-0.37285 0.41265,-0.36245 0.41307,-0.35123 0.41305,-0.34041 0.41352,-0.32916 0.41308,-0.31835 0.41265,-0.30754 0.41349,-0.29585 0.41307,-0.28503 0.41308,-0.27295 0.41264,-0.2621 0.41351,-0.25045 0.41307,-0.23918 0.41309,-0.22754 0.41305,-0.21583 0.41307,-0.20415 0.41309,-0.19292 0.41307,-0.18078 0.41307,-0.16913 0.41309,-0.15703 0.41305,-0.14575 0.41352,-0.13323 0.41264,-0.12153 0.41307,-0.11029 0.41351,-0.09776 0.41307,-0.08564 0.41307,-0.07397 0.41265,-0.06186 0.41351,-0.04975 0.41307,-0.03805 0.41307,-0.02551 0.41307,-0.01386 0.41307,-0.0017 0.41308,0.01037 0.41308,0.02249 0.41307,0.03418 0.41309,0.04628 0.41306,0.05838 0.41306,0.07052 0.41309,0.08262 0.41307,0.09429 0.41307,0.10641 0.41351,0.11807 0.41263,0.13019 0.41309,0.1423 0.4135,0.15356 0.41308,0.16567 0.41265,0.17733 0.41307,0.18945 0.41349,0.20114 0.41307,0.21237 0.41309,0.22406 0.41307,0.23574 0.41307,0.2474 0.41309,0.25865 0.41305,0.27034 0.41307,0.28159 0.41309,0.29281 0.41307,0.30365 0.41309,0.31533 0.41307,0.32614 0.41306,0.33737 0.41308,0.34819 0.41351,0.35901 0.41263,0.36981 0.41308,0.38107 0.4135,0.39101 0.41307,0.40184 0.41265,0.41265 0.41307,0.42257 0.41351,0.43297 0.41307,0.44336 0.41307,0.45331 0.41307,0.46324 0.41309,0.47319 0.41307,0.48315 0.41307,0.49266 0.41309,0.50261 0.41305,0.51169 0.41307,0.52164 0.41309,0.53029 0.41307,0.54025 0.41309,0.54846 0.41307,0.55797 0.41349,0.56662 0.41265,0.57527 0.41307,0.5835 0.41351,0.59257 0.41307,0.6008 0.41264,0.60901 0.41306,0.61681 0.41351,0.62501 0.41309,0.63237 0.41307,0.6406 0.41307,0.6475 0.41307,0.65573 0.41307,0.66222 0.41309,0.67 0.41307,0.67648 0.41307,0.68343 0.41309,0.69032 0.41305,0.69682 0.41307,0.70287 0.41309,0.70979 0.41307,0.71543 0.41307,0.72147 0.41309,0.72709 0.41305,0.73271 0.41351,0.73836 0.41307,0.74396 0.41265,0.74828 0.41308,0.75436 0.41352,0.75824 0.41305,0.76342 0.41307,0.76821 0.41309,0.77207 0.41307,0.77639 0.41307,0.78075 0.41309,0.78375 0.41305,0.78808 0.41309,0.79198 v 95.21201"
         id="path9042" /></clipPath><marker
       style="overflow:visible"
       id="marker4066-0"
       refX="0"
       refY="0"
       orient="auto-start-reverse"
       inkscape:stockid="Arrow2"
       markerWidth="7.6999998"
       markerHeight="5.5999999"
       viewBox="0 0 7.7 5.6"
       inkscape:isstock="true"
       inkscape:collect="always"
       preserveAspectRatio="xMidYMid"><path
         transform="scale(0.7)"
         d="M -2,-4 9,0 -2,4 c 2,-2.33 2,-5.66 0,-8 z"
         style="fill:context-stroke;fill-rule:evenodd;stroke:none"
         id="path4064-6" /></marker></defs><sodipodi:namedview
     id="base"
     pagecolor="#ffffff"
     bordercolor="#666666"
     borderopacity="1.0"
     gridtolerance="10000"
     guidetolerance="10"
     objecttolerance="10"
     inkscape:pageopacity="0.0"
     inkscape:pageshadow="2"
     inkscape:zoom="0.8413126"
     inkscape:cx="849.86246"
     inkscape:cy="17.234973"
     inkscape:document-units="px"
     inkscape:current-layer="layer2"
     showgrid="false"
     showguides="true"
     inkscape:guide-bbox="true"
     inkscape:window-width="3440"
     inkscape:window-height="1440"
     inkscape:window-x="0"
     inkscape:window-y="0"
     inkscape:showpageshadow="0"
     inkscape:pagecheckerboard="1"
     inkscape:deskcolor="#d1d1d1"
     inkscape:window-maximized="1"><sodipodi:guide
       orientation="horizontal"
       position="-58.218686,556.69544"
       id="guide7357"
       inkscape:locked="false" /><sodipodi:guide
       orientation="vertical"
       position="208.3701,6.1954455"
       id="guide7359"
       inkscape:locked="false" /><inkscape:page
       x="0"
       y="0"
       width="846.677"
       height="570.81299"
       id="page9406"
       inkscape:export-filename="sumas-riemann-polares.png"
       inkscape:export-xdpi="72.7684"
       inkscape:export-ydpi="72.7684" /><inkscape:page
       x="951.69849"
       y="-16.617077"
       width="319.32935"
       height="346.96133"
       id="page9408" /></sodipodi:namedview><metadata
     id="metadata7"><rdf:RDF><cc:Work
         rdf:about=""><dc:format>image/svg+xml</dc:format><dc:type
           rdf:resource="http://purl.org/dc/dcmitype/StillImage" /></cc:Work></rdf:RDF></metadata><g
     inkscape:label="Layer 1"
     inkscape:groupmode="layer"
     id="layer1"
     transform="translate(35.835864,-113.87381)"><text
       xml:space="preserve"
       style="font-size:40px;line-height:1.25;font-family:sans-serif;text-align:center;text-anchor:middle"
       x="472.27359"
       y="339.70712"
       id="text12370"><tspan
         sodipodi:role="line"
         id="tspan12368"
         x="472.27359"
         y="339.70712" /></text></g><g
     inkscape:groupmode="layer"
     id="layer2"
     inkscape:label="Latex"
     transform="translate(-58.218686,-16.617077)"><g
       id="g11278"
       transform="matrix(0.86740312,0,0,0.86740312,54.441107,80.83197)"><path
         style="fill:none;fill-opacity:1;fill-rule:evenodd;stroke:#1488de;stroke-width:3;stroke-linecap:butt;stroke-linejoin:miter;stroke-miterlimit:4;stroke-dasharray:none;stroke-opacity:0.996078"
         d="M 1.0116759,227.19971 172.32901,648.74223 649.9093,507.78751 674.46841,500.53902 C 648.22408,466.57581 565.78575,396.8185 528.53737,383.99669 464.14736,361.83207 353.4463,358.13811 291.84423,276.5673 230.6942,195.59499 44.685986,125.47235 1.0116759,227.19971 Z"
         id="path2751"
         sodipodi:nodetypes="ccccszc"
         transform="translate(94.05455,-97.25673)" /><path
         style="fill:none;fill-opacity:0.75;fill-rule:evenodd;stroke:#808080;stroke-width:2.4;stroke-linecap:butt;stroke-linejoin:miter;stroke-miterlimit:4;stroke-dasharray:4.8, 4.8;stroke-dashoffset:0;stroke-opacity:1"
         d="M 171.81629,648.23901 -44.409183,115.01204"
         id="path3642"
         sodipodi:nodetypes="cc"
         transform="translate(94.05455,-97.25673)" /><path
         style="fill:none;fill-opacity:0.75;fill-rule:evenodd;stroke:#808080;stroke-width:2.4;stroke-linecap:butt;stroke-linejoin:miter;stroke-miterlimit:4;stroke-dasharray:4.8, 4.8;stroke-dashoffset:0;stroke-opacity:1"
         d="M 173.93957,647.547 771.22948,471.717"
         id="path3646"
         sodipodi:nodetypes="cc"
         transform="translate(94.05455,-97.25673)" /><ellipse
         style="fill:#808080;fill-opacity:1;stroke:#808080;stroke-width:2.4;stroke-miterlimit:4;stroke-dasharray:none;stroke-dashoffset:0;stroke-opacity:1"
         id="path5583"
         transform="matrix(1,0,0,-1,94.05455,-97.25673)"
         cx="172.40395"
         cy="-648.32867"
         rx="9.0276709"
         ry="9.0276661" /><path
         sodipodi:type="arc"
         style="fill:#9fcdf1;fill-opacity:0.501961;stroke:#808080;stroke-width:2.27791;stroke-miterlimit:4;stroke-dasharray:none;stroke-dashoffset:0;stroke-opacity:1"
         id="path9165"
         sodipodi:cx="171.879"
         sodipodi:cy="-648.02838"
         sodipodi:rx="454.36536"
         sodipodi:ry="458.38553"
         d="M 147.82062,-190.28588 A 454.36536,458.38553 0 0 1 0.49311219,-223.50266 L 171.879,-648.02838 Z"
         transform="matrix(1,0,0,-1,94.05455,-97.25673)"
         sodipodi:start="1.6237705"
         sodipodi:end="1.9575657"
         sodipodi:arc-type="slice" /><path
         sodipodi:end="1.9575657"
         sodipodi:start="1.6237705"
         transform="matrix(0.94585854,0.32457915,0.32980692,-0.94404841,94.05455,-97.25673)"
         d="m 354.62473,-161.59429 a 397.31799,394.53418 0 0 1 -128.82997,-28.5898 l 149.86772,-365.39092 z"
         sodipodi:ry="394.53418"
         sodipodi:rx="397.31799"
         sodipodi:cy="-555.57501"
         sodipodi:cx="375.66248"
         id="path10052"
         style="fill:#9fcdf1;fill-opacity:0.501961;stroke:#808080;stroke-width:2.20986;stroke-miterlimit:4;stroke-dasharray:none;stroke-dashoffset:0;stroke-opacity:1"
         sodipodi:type="arc"
         sodipodi:arc-type="slice" /><path
         sodipodi:type="arc"
         style="fill:#9fcdf1;fill-opacity:0.501961;stroke:#808080;stroke-width:2.39232;stroke-miterlimit:4;stroke-dasharray:none;stroke-dashoffset:0;stroke-opacity:1"
         id="path10054"
         sodipodi:cx="536.2912"
         sodipodi:cy="-395.29883"
         sodipodi:rx="364.40378"
         sodipodi:ry="365.69507"
         d="M 517.81486,-30.074124 A 364.40378,365.69507 0 0 1 398.83868,-56.616748 L 536.2912,-395.29883 Z"
         transform="matrix(0.77529202,0.63160294,0.62020653,-0.78443856,94.05455,-97.25673)"
         sodipodi:start="1.621521"
         sodipodi:end="1.9575657"
         sodipodi:arc-type="slice" /><path
         sodipodi:end="1.9543589"
         sodipodi:start="1.6205561"
         transform="matrix(0.54021812,0.84152503,0.84138423,-0.5404374,94.05455,-97.25673)"
         d="M 619.4525,163.6223 A 367.32007,367.27631 0 0 1 500.2618,137.38962 L 637.72272,-203.1994 Z"
         sodipodi:ry="367.27631"
         sodipodi:rx="367.32007"
         sodipodi:cy="-203.1994"
         sodipodi:cx="637.72272"
         id="path10056"
         style="fill:#9fcdf1;fill-opacity:0.501961;stroke:#808080;stroke-width:2.20924;stroke-miterlimit:4;stroke-dasharray:none;stroke-dashoffset:0;stroke-opacity:1"
         sodipodi:type="arc"
         sodipodi:arc-type="slice" /><path
         sodipodi:type="arc"
         style="fill:#9fcdf1;fill-opacity:0.501961;stroke:#808080;stroke-width:2.23778;stroke-miterlimit:4;stroke-dasharray:none;stroke-dashoffset:0;stroke-opacity:1"
         id="path10058"
         sodipodi:cx="670.54645"
         sodipodi:cy="0.71678233"
         sodipodi:rx="441.85797"
         sodipodi:ry="451.16403"
         d="M 651.20673,451.44845 A 441.85797,451.16403 0 0 1 505.74933,419.32744 L 670.54645,0.71678233 Z"
         transform="matrix(0.25123242,0.96792679,0.97053224,-0.24097132,94.05455,-97.25673)"
         sodipodi:start="1.6145794"
         sodipodi:end="1.9529978"
         sodipodi:arc-type="slice" /><g
         id="g4798"><text
           xml:space="preserve"
           style="font-style:italic;font-variant:normal;font-weight:normal;font-stretch:normal;font-size:40px;line-height:1.25;font-family:sans-serif;-inkscape-font-specification:'sans-serif, Italic';font-variant-ligatures:normal;font-variant-caps:normal;font-variant-numeric:normal;font-variant-east-asian:normal;text-align:center;text-anchor:middle;fill:#1488de;fill-opacity:0.996078;stroke:none;stroke-opacity:0.996078"
           x="474.69534"
           y="175.19823"
           id="text493"><tspan
             sodipodi:role="line"
             id="tspan491"
             x="474.69534"
             y="175.19823"
             style="font-style:italic;font-variant:normal;font-weight:normal;font-stretch:normal;font-size:40px;font-family:FreeSerif;-inkscape-font-specification:'FreeSerif, Italic';font-variant-ligatures:normal;font-variant-caps:normal;font-variant-numeric:normal;font-variant-east-asian:normal;fill:#1488de;fill-opacity:0.996078;stroke:none;stroke-opacity:0.996078">r=f(θ)</tspan></text><g
           id="g1799"
           transform="translate(-355.68401,-136.11151)"><text
             xml:space="preserve"
             style="font-style:italic;font-variant:normal;font-weight:normal;font-stretch:normal;font-size:40px;line-height:1.25;font-family:sans-serif;-inkscape-font-specification:'sans-serif, Italic';font-variant-ligatures:normal;font-variant-caps:normal;font-variant-numeric:normal;font-variant-east-asian:normal;text-align:center;text-anchor:middle;fill:#808080;fill-opacity:1"
             x="459.78653"
             y="171.72292"
             id="text493-7"><tspan
               sodipodi:role="line"
               id="tspan491-8"
               x="459.78653"
               y="171.72292"
               style="font-style:italic;font-variant:normal;font-weight:normal;font-stretch:normal;font-size:40px;font-family:FreeSerif;-inkscape-font-specification:'FreeSerif, Italic';font-variant-ligatures:normal;font-variant-caps:normal;font-variant-numeric:normal;font-variant-east-asian:normal;fill:#808080;fill-opacity:1;stroke:none;stroke-opacity:1">θ=b</tspan></text><g
             id="g4455"
             transform="translate(186.19729,-73.470059)"><text
               xml:space="preserve"
               style="font-style:italic;font-variant:normal;font-weight:normal;font-stretch:normal;font-size:40px;line-height:1.25;font-family:sans-serif;-inkscape-font-specification:'sans-serif, Italic';font-variant-ligatures:normal;font-variant-caps:normal;font-variant-numeric:normal;font-variant-east-asian:normal;text-align:center;text-anchor:middle;fill:#808080;fill-opacity:1"
               x="417.98987"
               y="160.31496"
               id="text493-7-2"><tspan
                 sodipodi:role="line"
                 id="tspan491-8-06"
                 x="417.98987"
                 y="160.31496"
                 style="font-style:italic;font-variant:normal;font-weight:normal;font-stretch:normal;font-size:40px;font-family:FreeSerif;-inkscape-font-specification:'FreeSerif, Italic';font-variant-ligatures:normal;font-variant-caps:normal;font-variant-numeric:normal;font-variant-east-asian:normal;fill:#808080;fill-opacity:1;stroke:none;stroke-opacity:1">y</tspan></text><g
               id="g4480"
               transform="translate(717.36949,617.228)"><text
                 xml:space="preserve"
                 style="font-style:italic;font-variant:normal;font-weight:normal;font-stretch:normal;font-size:40px;line-height:1.25;font-family:sans-serif;-inkscape-font-specification:'sans-serif, Italic';font-variant-ligatures:normal;font-variant-caps:normal;font-variant-numeric:normal;font-variant-east-asian:normal;text-align:center;text-anchor:middle;fill:#808080;fill-opacity:1"
                 x="417.98987"
                 y="160.31496"
                 id="text493-7-2-1"><tspan
                   sodipodi:role="line"
                   id="tspan491-8-06-5"
                   x="417.98987"
                   y="160.31496"
                   style="font-style:italic;font-variant:normal;font-weight:normal;font-stretch:normal;font-size:40px;font-family:FreeSerif;-inkscape-font-specification:'FreeSerif, Italic';font-variant-ligatures:normal;font-variant-caps:normal;font-variant-numeric:normal;font-variant-east-asian:normal;fill:#808080;fill-opacity:1;stroke:none;stroke-opacity:1">x</tspan></text></g></g><g
             id="g3276"
             transform="translate(771.08365,327.86291)"><text
               xml:space="preserve"
               style="font-style:italic;font-variant:normal;font-weight:normal;font-stretch:normal;font-size:40px;line-height:1.25;font-family:sans-serif;-inkscape-font-specification:'sans-serif, Italic';font-variant-ligatures:normal;font-variant-caps:normal;font-variant-numeric:normal;font-variant-east-asian:normal;text-align:center;text-anchor:middle;fill:#808080;fill-opacity:1"
               x="459.78653"
               y="171.72292"
               id="text493-7-5"><tspan
                 sodipodi:role="line"
                 id="tspan491-8-0"
                 x="459.78653"
                 y="171.72292"
                 style="font-style:italic;font-variant:normal;font-weight:normal;font-stretch:normal;font-size:40px;font-family:FreeSerif;-inkscape-font-specification:'FreeSerif, Italic';font-variant-ligatures:normal;font-variant-caps:normal;font-variant-numeric:normal;font-variant-east-asian:normal;fill:#808080;fill-opacity:1;stroke:none;stroke-opacity:1">θ=a</tspan></text><path
               style="fill:none;stroke:#808080;stroke-width:2.15136;stroke-linecap:butt;stroke-linejoin:miter;stroke-dasharray:none;stroke-opacity:1;marker-start:url(#Arrow2);marker-end:url(#marker4066)"
               d="m -391.49053,360.01497 c 898.36879,0 898.36879,0 898.36879,0"
               id="path4036" /><g
               id="g4140"
               transform="matrix(0,-0.61927568,1,0,-508.78208,139.61112)"><path
                 style="fill:none;stroke:#808080;stroke-width:2.2394;stroke-linecap:butt;stroke-linejoin:miter;stroke-dasharray:none;stroke-opacity:1;marker-end:url(#marker4066-0)"
                 d="m -402.77057,360.01497 c 973.40635,0 973.40635,0 973.40635,0"
                 id="path4036-3" /></g></g></g><text
           xml:space="preserve"
           style="font-size:40px;line-height:1.25;font-family:sans-serif;text-align:center;text-anchor:middle"
           x="79.686211"
           y="35.637672"
           id="text1791"><tspan
             sodipodi:role="line"
             id="tspan1789"
             x="79.686211"
             y="35.637672"></tspan></text></g></g></g></svg>
